<mxfile host="app.diagrams.net" modified="2024-01-13T21:37:33.808Z" agent="Mozilla/5.0 (Windows NT 10.0; Win64; x64) AppleWebKit/537.36 (KHTML, like Gecko) Chrome/120.0.0.0 Safari/537.36 Edg/120.0.0.0" etag="yiegnPbRJkzxvp9JSH5O" version="22.1.17" type="device">
  <diagram id="yj3Q-dvVe9D1_Diwe30B" name="Page-1">
    <mxGraphModel dx="1523" dy="656" grid="0" gridSize="10" guides="0" tooltips="1" connect="1" arrows="1" fold="1" page="0" pageScale="1" pageWidth="850" pageHeight="1100" background="#000033" math="0" shadow="0">
      <root>
        <mxCell id="0" />
        <mxCell id="1" parent="0" />
        <mxCell id="vl4gCE95MVzYSTKUqyQD-23" value="" style="rounded=1;whiteSpace=wrap;html=1;dashed=1;dashPattern=1 1;strokeColor=#99FFCC;fillColor=none;snapToPoint=0;fixDash=1;enumerate=0;sketch=0;" parent="1" vertex="1">
          <mxGeometry x="289" y="461" width="332" height="316" as="geometry" />
        </mxCell>
        <mxCell id="vl4gCE95MVzYSTKUqyQD-54" style="edgeStyle=elbowEdgeStyle;shape=link;rounded=0;orthogonalLoop=1;jettySize=auto;elbow=vertical;html=1;entryX=0.25;entryY=0;entryDx=0;entryDy=0;fontColor=#FFFFFF;strokeColor=#99FFFF;noJump=0;flowAnimation=1;snapToPoint=0;fixDash=1;enumerate=0;sketch=0;" parent="1" source="vl4gCE95MVzYSTKUqyQD-51" target="vl4gCE95MVzYSTKUqyQD-43" edge="1">
          <mxGeometry relative="1" as="geometry" />
        </mxCell>
        <mxCell id="vl4gCE95MVzYSTKUqyQD-51" value="" style="rounded=1;whiteSpace=wrap;html=1;labelBackgroundColor=none;fontColor=#000000;strokeColor=#FF817D;strokeWidth=1;fillColor=none;snapToPoint=0;fixDash=1;enumerate=0;sketch=0;" parent="1" vertex="1">
          <mxGeometry x="-142" y="286" width="320" height="172" as="geometry" />
        </mxCell>
        <mxCell id="vl4gCE95MVzYSTKUqyQD-36" style="edgeStyle=elbowEdgeStyle;shape=link;rounded=0;orthogonalLoop=1;jettySize=auto;elbow=vertical;html=1;fontColor=#FFFFFF;strokeColor=#99FFFF;entryX=0.06;entryY=0.5;entryDx=0;entryDy=0;entryPerimeter=0;flowAnimation=1;snapToPoint=0;fixDash=1;enumerate=0;sketch=0;" parent="1" source="vl4gCE95MVzYSTKUqyQD-4" target="vl4gCE95MVzYSTKUqyQD-35" edge="1">
          <mxGeometry relative="1" as="geometry">
            <Array as="points">
              <mxPoint x="199" y="932" />
            </Array>
          </mxGeometry>
        </mxCell>
        <mxCell id="vl4gCE95MVzYSTKUqyQD-4" value="" style="aspect=fixed;perimeter=ellipsePerimeter;html=1;align=center;shadow=0;dashed=0;spacingTop=3;image;image=img/lib/active_directory/database.svg;snapToPoint=0;fixDash=1;enumerate=0;sketch=0;" parent="1" vertex="1">
          <mxGeometry x="-26" y="851" width="199.99" height="148" as="geometry" />
        </mxCell>
        <mxCell id="vl4gCE95MVzYSTKUqyQD-42" style="edgeStyle=elbowEdgeStyle;shape=link;rounded=0;orthogonalLoop=1;jettySize=auto;elbow=vertical;html=1;fontColor=#000000;strokeColor=#99FFFF;exitX=1;exitY=0.5;exitDx=0;exitDy=0;flowAnimation=1;snapToPoint=0;fixDash=1;enumerate=0;sketch=0;" parent="1" source="vl4gCE95MVzYSTKUqyQD-19" target="vl4gCE95MVzYSTKUqyQD-22" edge="1">
          <mxGeometry relative="1" as="geometry" />
        </mxCell>
        <mxCell id="vl4gCE95MVzYSTKUqyQD-13" value="" style="rounded=1;whiteSpace=wrap;html=1;dashed=1;dashPattern=1 1;strokeColor=#FF00FF;fillColor=none;snapToPoint=0;fixDash=1;enumerate=0;sketch=0;" parent="1" vertex="1">
          <mxGeometry x="301" y="281" width="261" height="154" as="geometry" />
        </mxCell>
        <mxCell id="vl4gCE95MVzYSTKUqyQD-9" value="" style="shape=image;verticalLabelPosition=bottom;labelBackgroundColor=default;verticalAlign=top;aspect=fixed;imageAspect=0;image=data:image/png,iVBORw0KGgoAAAANSUhEUgAAAMwAAADMCAYAAAA/IkzyAAAAAXNSR0IArs4c6QAAAIRlWElmTU0AKgAAAAgABQESAAMAAAABAAEAAAEaAAUAAAABAAAASgEbAAUAAAABAAAAUgEoAAMAAAABAAIAAIdpAAQAAAABAAAAWgAAAAAAAACQAAAAAQAAAJAAAAABAAOgAQADAAAAAQABAACgAgAEAAAAAQAAAMygAwAEAAAAAQAAAMwAAAAAD+tdDwAAAAlwSFlzAAAWJQAAFiUBSVIk8AAALXxJREFUeAHtXQd8VEX+n3lv921PQkINoQaQ3nvvCIqgnqgcKFiwnA1BBb2/3Hkn6HF2z3KcinqWA8QuTVoICBKaQBTpLQUIKdv3lfn/ZmGT3c2Wt0sCWTLz+ST73sxvfjPvO/Ob8pvfzCDEHEOAIcAQYAgwBBgCDAGGAEOAIcAQYAgwBBgCDAGGAEOAIcAQYAgwBBgCDAGGAEOAIcAQYAgwBBgCDAGGAEOAIcAQYAgwBBgCDAGGAEOAIcAQYAgwBBgCDAGGAEOAIcAQYAgwBBgCDAGGAEOAIcAQYAgwBBgCDAGGAEOAIcAQYAgwBBgCDAGGAEOAIcAQYAgwBBgCDAGGAEOAIcAQYAgwBBgCDAGGAEOAIcAQYAgwBBgCDAGGAEOAIcAQYAgwBBgCDAGGAEOAIcAQYAgwBBgCDAGGAEOAIcAQYAgwBBgCDAGGAEOAIcAQYAgwBBgCDAGGwFWJAL4qv6oGfxQhRHvUjlJ3FrqTNhUrqUUuLPxaJhsIVkwcwTxCMiKIk2Si2Ec00Dm1WHEObWIs7WJApY0s+GwN/rRakTUmMJehmEFITG8c8ExcesI9WSa4qRYTM8JYLyvErCCscUtEwBoth7iLxaEoiEiSbNRiD2TPw2PklAlyuBVUBs+5D7Xhv/1jC+PnlyHrLIkgBJjABAFSFa9L9hOhQHA3kURy+6az8u0nJV17RZYRlkWECLm0JDCHCK9BvFZAzXnHtiENhP98edL15X2NTlondehABYy5akSACUwVgptTSDL//qttHCF4QoGiGyFS2ZA8CCtyFaZSwYpwGoS1OoQ9DtTUiL7BiPt62WDjKozx6Qoq9lSVCDCBqQI0YchluSnLtviUHY0lmOgJjLcuuSeJNV+QJEeIrOGQtX994b2Xuutnx8qC0UdHgAlMdIzCUjy4w9VKo8hTtpzH80BIYL4OQ64a4BStHtWFbmdQPc0ziuhY/peeqSdqQLauiiwwgYmjGKFH0Y9Za3/HrZDrbZw+DXlcwOUS5yZx5CNSFAI9DigSUBIS88wavOTbYeaZkehZmDoEmMCow6mcamWec9BLueKy8yKuf9mHXeW5iP0hw8DlPHQNf/OodAPrbWKHrzwGE5hyKCI/QK+ie3i7a+ZPDv0C4rQjTJTIEWpYKOG1yIAk0sKEp348wPQ5KAaqRxNRw767qrPDBEYloiPXWHeVSKgrCI7KGDWRDIZpMHRsZua++2KweXxNzGFNzxMTmCgltOS4p8fC/a4fFcyloCrvVQB+bwlARfYq1qDXIt5EQCrpJAQWXWi4V0bhXxUJq8ILKFMvHrovQ+w5KjO1NAoELNgPASYwfmAEPz7ys3P6jmLxDZfCmapKWBQYGtHJOK/lkdlty6+nw7/A6v/xE3b5oIKxRyHEBr2Am1PAEgCjZB1G2uZmrh0YAWQcsZH+stFskEUJ1ndEWN+B3zgd4Xhk5JTTMzJ1E+/IFHLiZFProjGBCVPkr//qnPbhMemDqmrVEXQWVFh6J8nruqVwS0uR7puc86h4ZD8k1VmKlEmTws8pYBjIL81F/ItH8jWPdWjUpMDlvGH7OeW2Q6K+O/Y44+95oBMzcMi1abS5G/Rwv4WBgnn7IcAExg8M3+MTOxy3gknLJ6JCwBjyEhy04nqsuGEx8bCBI6tWDLc8AxUTanjVOBCk9BE/Wl+ANaB+dolkyhj6IbBDi8XR0R4H+XymHep5YzPTjlji1kZaJjBBpf63va6HV+Z5XnIpWBtv7+JdAzGaUXNkW5Vu1jz/enf9LyAo1TZX2FpIGiw65Oh5yiW/fBZb2mCXNeiror/qOXxuQQ+u8+B6pvzo1LWXggmMX9kv2Ge/Z9lJZVG8gnKRFUnS4sJH22inTmym/9GP/WV5fOs35/QPj4mvSwoyx5Ig3VlQX6ecXDHM3AyE26tmiCV+baFlAnOxpB/JcczOOU8WuqU4lyfAgjiJl61perxg6QDTy1Dp3FeqEsFQre6EDbY/nxG5R0XYF6BWYUHXahoL8vffDDXdCPmvGXY+VwrEMOkygQFgHs9xPLK5iLwmyXT8H0fjChN6I0cOT2oq3PhwO93eMFhfdu8HfnYO2VsifueU1Pc2mONQ71Q0+63e5pcue4YTIMFaLzDjN9rvzrMr/4lLUKCAOahgdbRo2+oR5r41sbyht2nYZ6V1i4L5FkTlNgOjTkAjLFKjv/Q2F9TEb7qSeeKuZOJXOm0Ytsw851LejjsfMAxrosfLVg039Y+bRzVHhKFVwbZrLd1TNfLPCPbPqHF2UUabrWQ7CJtRDX1toqm1AnP3VtvcU07yskcm2nh6F7qm0s6k/PDFEOMkqJSx6XIvcw2D/JWsGmEZncJLvxIYPkZzdMPbeTfJuCXL9mQ02toWXiuHZLdusi044uTmKFJ8K+U8LHd0SMKvfNDf/Hi8FQZa76RpW52dBKQM1Gu43iftcpd8J2qCLGbBO42iJWOzkcYG7liaDu2Fep5zusyT/XLvlL3XJOFz8aQLaWrGrLVlnZP4fmqsBCxabBvdQOj1dGcdW9S8CHitE5h7t9rm7y7TzFVg63DMju6j5HW4s8kzH4Tlz9Byx6whgEprvi3b/kyBk1wHC6PXuDmd4J1bgAkZNYwMVGmDD6zGe83KYHFRI4uyQYMOpev5VZ8MNDwP6Z+J9Rt+yLfWW7gPbSkTSatocYlGh7oliR+/19d8RzTa2hJeawQGKiq+ZZP9ZTji6DG1atZKlQBswPokk3+81cf4VKWwKB40/T/vdj66slj3CnJTc5b4R3F0WIUFPepncS14o5dpHghOTCrgV/Y5Bnx6QtoAOYg6qcFmC9o+CDZwYlwU5RNrRXCtEZjbNjleOO6Qn4I5S1wFi6GFzxDkl78anjQrVgYvH/D03pjveTFP1AxVxDh6tnAJwskxjbVSTmsTevqlXuY14chC+c/KcTy83mZ4HTsiWwXQE2oyDcripYPN00PxqW1+tUJgZmy1v7uzBM1Qq1YNrgREMKA2gvuVzwfHPmehFs/bi8TXPIizXEqvEpyn8nfobbRIcbZN4f66uJ/5xXJ/FQ8wl9t60I77RDvVBk5MK1o+xNI93YBr/W7N6CoTFcDXVBIYBnFTN9vf21nGxS0scHAeGp3qnh2rsNAh2Myf7c9uLePf9xBUPcJCgYehHRznZPjFrnvhzk22F+k3qy0Pg8A/oSFyVIsEkeC0ydm2qWr5UroPT5G0p3c7p2SfJZZY4tV0WtXg1vQPCZU/6Fn+ecAl3EVg70jMjs7AYTgyJkN49IXusa9635FtX5hlN/xV9h6QEXPqMUegZv77ROOT16+3qV5XWtzHsKmpEf+gRtVcX4fG0gMK1Was1Or600q7/uMX9lk/jUWI1fK/UnRX7ZCs/8rST90Kvj1eYBWtAc1sSR6HzVWvxMpjarZ93EGbshy0YLpY414qPbSASgMDd8d3w8yfqOF1xk66jd0i7kQiPfkmvOPgwECHRrDsH4Zt4akqQpYfl65//jD3LXLZEFhC78keY+4DioOovVkFh5r5dFX2MCPXlC0QER+3sPBg7jKyrme+V1hgaBVL0e0FU/tCt/IeDGMuu7DQfIJymnPJ6L1PDrtaq8l3fRPe1Vzn+ZGABjCSk0HpcXdd5wORaPzDthfx26hGnDo3wl3Gb7B9Aj2N4YJP4v6/6gRm7Drb4mIizFFi3EjlLUK6ziIY0ZD6+LmF3UzPXPCLba3l77/bPzknCw2rZYKvqp4RdF7mdJ8c83ytihyImhqk+7S+g9DDRMIwtPwyX346THAlb5cL2RogB+ytAVChLPJF4eax66zf07ldJeIE8rhqBOYktF5j15Z9e8aN7qTnGcfj6BGvj7dUZizsbpoXT/xndrseOmjnRmDpyo48sCyhAg/X7tZs2z/UfEeThsn56Rpx68UTOUJHAeWCAwspLkKuCU0Q6NtWQBJYCvx84ZAPCANMznrwsJE/2nbuLyWpgdSJ83bVCMzDWdY3zhDD9fG27KANk8c01Eyb0lJYBKqnmFvBXcXFKdlnxAfVmJxcjupBz00rdKBbPjhKGkZLb2YGchWLOLu8coeJQOAGgjdz3UPCBAd4z+iBZIdIjgYIIZx6U4KErnN22RZBTxN10TSAYQ15SXiBocAPXmXNOuVAdyN6IEQ8zmBBdzUXblzQzfDhheixDcNonOmbuNZ2mbSLJ/nqimPHmuZrTji6R+MPk3HSry7eDAcYROyaqRCuKxQ7R+NHw4GnctqpnKokhKIbgc3cTf1XWncnotAktMAA4Aawy3rfQbhB8R7ZBV2JPLaO4/772+m/VVMRwtH0qa95gHCRJ87h4laXvww9AuKRqnnH/K7GjQQpkVVlIDBn3KSb2vw2NODTHKl8FhSUG4JDojrcsNH2vzNnzsS0lVpt2tVFl7ACQ1unP2TZvzjo1k2NdwUfwwp+9zTu7r93Nb17KQBDXvDuMjQdwdyhJjm6gn9AMg6A/EWdM0CPUAy3zUCPELlKmHmcDPyS1XxnawvnAqu3kEZzwAPlibqbpu3XL6H4qeFXE2gio1MTchgiD8dLSJ1x623bj9mVsd5zuULQRPaC04jApGxOJun77z7mi8OwyDEihW4+K48VNVRjCkxrmIOr/9Diw+4/qslW91R+uwLq40gOqnbawl/d9SPR+MJaGXA+h0n4YR6s/RQ68djBa2z7ywhJ88Wryb8JJzDQGunm7LW/U6jou8YLrI4jtj805Ub/oYWwLV4e/vFWnfYMoydR1kgHvd7aAlHVRL1rGr8TRREYULwbilycqp2Y7eobROg6orQicHkn0rSbvN72Li3bGomhX6YSSlMBgBqGrrFtsStcV7hc2O8zVD7SdRa9Bc9t6Ro7vpkhW2WsqGRHHKQtInGeNhOV+6URUK3dQSvpq4ZLkkZziKPGcxFk3y5j0/ozriQ1/GDKI4G0RBEY4ASNTYHC3Txgla0VvMXdEKrJ06XSJFQPM2Gj9WHQRHWJe86i1eOnmzlvrUphoQWQWyL3imbxe6kFFXd8mCtArVVVwa9L5/OizWGQRtAoCq9qom7E0HlQ4wMVji5uwgVVXW7Psj6rgvyKkSSMwCw5SQw8whO990fGAxdMZjMF9+Y/tDQuiSd6pDiwSG4M3CkZifryh9F7ANSkCh1LVDqvuQuWotLR9DQ8ckP3okpgfPkrEtFQGEnofe817TdhBCa3DPEw6KmrooMPjTEUsY7nj0BhVMc3Rx92hM7VZfOF777sOm+N4vAeIxjLR8LeG+Gsip2gsfCsStrqqDxVmb9yXkPaI6qi3Bq9DSyPEvgAarFTTmn86kJb3cCAKnmr2QJD6NEAKrYxixEmL+UwqepcvNSi1gi3daCY6phHQXn1kHcoV55iTXqI6WOuZMaHYSz1S8OvQ8HHmQ0wy5C1KS/+QlbHySBsNCNPDkfVLoWNXf0B0DOrAu2IC+miDS3p4SGyHEFV7Pc5VqeH6tpV1zFsMKPbm+hegjKOaRjnl2S1P6r+mGrPiYoEnupkynm2o24EmLBDi66qDgRwxXAteKlETc3LVsAQRdXENYBBmJdOdTTH4IayMKFX1ptenNTUhHeqycWBUtQxmkIFdmja043aYjX8XATD9TNqBAbWxUCb9lgT18C72lSNql9N/uKhqZmlHOFLbsjQrpvYVDtWg4lEjx+K3cEKs2S49qYs24cgNKrWE6Kl0aMOvw7D7sya6KjAtE/i96rJ20mnnEG1VZGcgceeQXXV9TAOGOGpGavC4iYaWFfzhymtjJsjpV0TwhJOYCho8zrqV93cVDtcgfvt4gIRjDRPOvBNsMK8C4QmqjVvtDQmt9J9ywk1U2DoTsnxDbVLo30DDd9WJEc9EAOGS0VDW5rOqOJ3zlMXtJoRlQ30BNGJGcLoN3obl6vheaVpElJgKGhPdjBs+ksHvgc1y49neEbvXnXIqM34DdZvVhVYVZl6hCssA8Yn6knW41HXMMIxqDZ/uCBTdKD+jbQb1SRxzKaAwES2hxMVZOtjQqouh3IqnAVatEi2NuSupmjYM530a9TkrybQJKzAUPAmNDftur+1YTAP9kpxdTXUAFDS93otF62FnuaSdP/19fx8FGWb72UvcDi3rFsS+ruadL8+7emmxdFMU+jJIOQo9DKRrZovJrinWE6TldDqbDqEHVCPv/7hdoYNavJXU2gSWmAoiHe10m5ZPkjfG1Y1QWZin9NgagDoRh2vW2fNuhRFQLqR32AhHlhCqDnOqLjtbpEsU5Oj5/a4B0owSY9ES+Csgy4p/C+RaPzDQFiSaZxgp8AtAn9qjge/3sv0Q3BYTX+v/DU1Pcch8pdhFvY831nfBxa9PHEpAqCnKZSFXqN/tH1xsKhIlRlJcDbmd9Ed1GC0Ja70g5lVyTuGhVq8672BpgPR2OXk5Gibm9BAuusrIi1oAmFi/lNEmouB69cTTXMT1yV41g9WEeTaBuS66dcYNqnhU9NorgqBoaAObSRsn9ZSM0rPkTisMoEBrC+cV/jR03O0W34sdLWMtaCgrpE5nc33CVR7F0dPF2t60ejhRmU0qZlwv5rh0125GUKZiEZGW4MBOzLUPw2vipY2Dd+bgXhYK4b9/xWDZbjUCQ4Y4Scs6JZ4PYvvm68agaEfdH8bQ1b2aEvnuFt5MIV3yqjDX/d4Vjyfa2/kA0nt78gGuPDOVtq76UHhV9IRrR5NbsrNm9Fat19NPu7tXefG85wx4iYzev9lF4N9hRp+lGb5KaQ9ZFO6+4QQg7ZuVmth4D97mC5pZ6va9KuL7qoSGAoStKiHnmqr6yZgdDZerZUDCW2y8uUNMKeJ2Yzm/laGjxrz7k/oXZFXxEHPkkLca55or5+vNv3lJzzvEjc1LA7vsE6P+tfTPxeeIjDkwaaeFrzJ4h3iQZlIA1PIuCmttDV+nSXwKyq/XaFSrZyRqvSZ1ELYvbCzZZAeK9a4hAaGZ+dEvs3A1dafTjtIk1jz9lF30yMcIadijVcV9DySS/+vk2YGraRq+M3d5XislGiMOOKSFkaNiP1U7tnCPWp4Upo8kVwrixKi6yy3NtWMebWXXnXvpDaNK0F3VQoMBXJgY3wge4ylDY8UW1xCA/vhXQrX6p6fbN99eMDROJbCSU7G55cPM4/QYmSFW2NjiRo/Lazo6zjs+mf3pFuHNTIcU8Po8PnzyesLpUepyVBEB7oAkwave7lfRvjtxkEM4ACOIkF0OSdnoBFPdDCsCwpO2NfLVJpXBh9oZQvGNdVDTyMfj8s4EhY3C2Vt509Pyev/e9Sjatei70sz9Pj3B9oIPdM0Sg4d/1erA2Ex88rvd2fqhw9uoG5STvPz6iHdbBlxzaPlDTT2nlQ9+gLwhEVidW5WB9P73w42t7qahIV+eWQ1ojpsajwVzEWSevxgLcAcrDNEHHqE/xSTBpWMrc8Pn9vVtCs8VeiQSVm2FYec/LVRW/LQ0SP7wgJgqkbZvhpuclY7DKMMAZM6vX4Uz5Moh5B7FSgEHdwxztImckZqR+hV3cP4ihAqUtnbgyxNTDz5Xc3VDr54/r82hU/Zcl5Z+cMJV6a/v5rnJYPNY29uhKabNXAhEWiw4tbi+RKDIRK9fxKGYGeGpqHH1oww945FWCibGzfaVytRzGAonSKY0FPthP+jz8zVkh7GV9B0LvJlvrLluBM35eI4tIJa/ibxSv6ivuZRrS1YlcrWlzb9vX2rrUELgZ/xc5E0+zw2JGFPZM2Uf1zfM70NTSc5PQPraV4/5sRvLB1oOOELU/MLPQu+caPjtZNO8nC0Y3Vp49LUgPK/GmpOV8O7NtDUiiGZf0FChdEOX2s7Dwt15niHZ/X03PGpzU1D/tgSH/fnHcvz4kOuGa8e8Dyn55EJFvh0YFSvIYgeoV+x0HehPVMIDxov0GJ5YDeiOKohN//F7qa4N1ndu8U2Zp+dX+lRsbuSrp2Mb6jcMa+T4eNYvu1qpq11AkML8/2D7vZLTnq+OOPGbel5wbE6wguoiU481EjHT3un36Xt4Th81tXmjWNK530lcqNiUalbR8cnGThidhPsKHLJJaBpK+mfps2blGnY2zcN58aaV3/6e7bapuwrURbD3TUwj/cXTH+qiuckLcruarKMfqU/js96ooLVVfNUKwWGlh70NObR62z5RR7OjOMYntF5CGxiK22mxzcuGWpZX1U1gg6ZgBedWyowL4leq1UmPP0n+z25Jcq/JLgBR00UOhybdQ0PvaghSw19baGpFZP+UIUJldG2eri5QUOdsi+udRpoocG6N/msB333xB7noFBpxONHhQT+5KoUltnbHbftL1UWqRYWUCh0TsJvMWGpXIK1VmAoFFApHUPS+LHpBvQLAZPzmB0ITamMjT8VSKtuy7bNjDl+NUeA3oq7Yb3tn9nF6DN63pEaR0BN3UTwbFo8wPQnNfS1jabWDsmCC3rYGuu5MgmnRdMcBccrf4eK1jUZffxeX+Md5X5X8AGExThho33TaRfujsBqQa2j603XN9YPe7KDsFttnNpEV6t7GP+CntOe75aiUbbGZRFAGYGl806bMHXcOtuR6ZttU6DCqpor+OehKp5LS0tT7/7JMXPkWlv+STcfk7BwPI+6p3APMWEJXxKsh/HDJiePGOfm2jcWEW1PDDdlxeVAGQCtEOzkRQf/0kn76HVN9Cvj4hNHpFk77DO2nJX/AnOrRvQ6j0AVdRSGJgu6Idn5+LyuxleiUNbqYCYwIYp//Frrujy4wDTu4ZmPJ2y4amuQtnWvw8/dX6LPeX8gtvqCqup35BqSPK6xZ+yGM57nTnm0rTFYWsfuMGpuxq98Mdj8eOxxa1cMJjAhyvuu7LOWPLd+WaGkGc1Fs+QNEd/fiyoTOJ0B1VOsBz2EW3ZdhiZr5jW67aBwKPKni+UZhntN5u5y9s4+Kw8WOHJ7KWeqR23C4rlBgOhMqL3O+cnHA0x3QZ7ikbZYsp7wtExgIhTh1C323H1luB2nwuYqApuAIFjLB1t6LIkKOTWpqfD14Ab81wPra7MDiEK8fHvcNf6XMmXEshPSH7UcNsGYTwvDrjhUe37Mwcymh0X8x7/7GJ/y82WPERBgAhMBHGjJ9bdk2ZeBzdZ10Y5QjcAmZBCGhUEZzP45OApJA9WeWG1KhgmfAGEoNz1wyYg/5eGb8QYdkuFAMAWu3+PgvvtLdt55FpHbJnEvfTzAzIQlBkCZwEQBC4SGf3yH+74NpZp/cR44jisOU5ooSVwIhkoMp0RWIr2wE1LlIkql2CE8QFD1Wh51NCsT3+1r+joEBfOKgEDlEopAXJuDFh8WR7x/2PU/u5QYl5eGKysjjwvuzRRG3dFKty8cDfMPjwATmPDYVAr5/KAr86NT0qIiRTtMctP5cRW2/JVSq0IP6L0E6Br1Gvz5upFmevRSlWvrqjC3NZoVE5gYiycnL8/4wWnLDTvPo8/ccJlZPJqpGJO8JHK6PRqUFq4HW+tHTM/UbANhUb/sf0kpX52RmcDEWa4wt2kwKcvx1gmHPFLCXBKKck1EnMnEF807qYdTwDEp6pjMf7mor/FBEJQoJ13El1Rti8UE5hJL/K3fyq7ZfI67+6hdme3ijVAtYeuIir0ml5hs6OgwoaeH+NXHrjyzDi2clWn6ql8jfCw0MfONBwEmMPGgFhQHehv80WmUerrE9diy49IszHOGWAweg9jF9UqtjM1YPn9TBv/3m9sZ3mmC2aavuICMEokJTBSA4gl+eo/zns1npMlwd01ru4wzJKxBBIwz49ndGTJ9OFsAgYBoJLecJOCjDgkdndiEf/uJ9sYvQ9IzzypDgAlMlUEZyIiu3/zrV1fGp3lK/d5J3LV5Lvm247KhPSw9eoWHyDD3hjUd72Ec4YZwdIgFf14LahASDNbEcEMAasY7shvq8bfbS8iaea1RwbXNTfmBqbO36kKACUx1IRuCLwiR7pBV6r6uQO61r1juYVNQvf0lcnvY3FUnBDlsvEcFbVP4Q2YeHR6art3dM027t6UR/xyClnkxBBgCDAGGAEOAIcAQYAgwBBgCDAGGAEOAIcAQYAgwBBgCDAGGAEOAIcAQYAgwBBgCDAGGAEOAIcAQYAgwBBgCDAGGAEOAIcAQYAgwBBgCDAGGAEOAIcAQYAgwBBgCDAGGQFUhQE+Ngb+oZxsDTRL81Yc/S1WlzfhcOQTYjssYsV+R5xz4zC5xLc9hCfbsO4c34O6c3830fSg2kzdZlxywoglwALkEB4fzfdP4L/7Vx/jHULTMLzEQiNpC1uTPeDinJDO7kDRGWIN7pZDCd/tZfofzt8oP81aT9+lbre13n0f1DJh4pjbX5j/QznAsXDwHXDMxYLVzEwgAUuCGMQVh47bzZOmbv5ImD7ULvL7izd9cj72Xp7uFQ1agRQLdm3/GQwaE4838EwOBhLyyD4Y3/Ph19uf2FHHZvGDYyAu6DblWtHn4j/ZVu/KdzdVADzx0fVeVfXOolGzRQHwR4S3LTkvZPVeUfUWHUKF4/HmH81bO/75IOLyihDMZEOcZHEyfWyp3Q57A6+0BbHbqZDBQCfaekAJzwwZr6yKPMssuo4ZE9CACp+o7ZZRaonAjXzumfKamDEb9aF0uKni8Q0bJCsSHHgOVeEhjOEF/wg+npO6heEBt5ysdpwzxjJwM51UEOu9h/IFe7O0qQCAhBeaEW5Mk6kzGYPw5OPtrj13X980DzhHBYf7vM7c7ejsVNCTsCZUYDhIL4SY3477UYCITei4YOPprlGySG8tZIciZ11WIQEIKTJoWbt4Kc5Yx53GgZSfEv8GwShuuvGwSmepCWlO48F/tckiB6VNP//t1TTUD6mnlYs5iQXU1SuHYhtqRD7SynAnHi/lfXQiErBg1/RM7WuSMLWXhr5qAy7o63f+zowt8R07wt1BB6r/a/hC9JjykA7anrKRRyDDwfLaDcRv8pPrCV/seavEvYGrIz8+/qHFthBo1QgooX+D2qavPJaTApOi19UhpeIFxYcEsKfJ9UFyVBOaFXNc8F69DnBw4Ia8oWgLzGblcICr8K57e/M094YBVbqLjsP3OFtyOjnWEvVBBwmeoImqlp20FzhafnMJjFFnRtk3mT/zpGmE98CqrROjnARXUMmu7fYKIuZSmJv707HbC2uA4QMMv3O+ceMKO0rUaxfZ0B9Pmujp0MFw+TzlIxj/3O0aDitHQ3MyfmNlWtwVow15ce8blaj1nl3jtb2Wo44SNtlYYWYAc7ksjNiwfQJ5eK61HGurIkQW9LGs6mvEev+wn9GNCCgynKNCaRRhNwtXbv7gs9+RZ3S+nW3S/+koISrNxn5W2WRyJdvNDeN5DVpflfXDE04BesEfdpjITp9GiJHiM+ZKiyZudzebulXLKRJJCeW0rkshHRz1n4TFsDzd/p7XeuPX2XWddCtAoaOtZiSw57hanbLY9+N8B5g8oH/hOofcK22G4ODadvlM39owVE8w3hsdKx8q++aurzaQsW65HId5e4qezMvnsmEhBMtC4/g54a+/8yfHyuHWe+8GfAxS40w4fRWCbkedEZFqWVZm4wfrzxz3QRIsl8Yeu4WuGD4Ma+AsVLBmqRcScyaDSnbNHfNWf6Lr1trkyXPTq7xfqOavQ7a3AwWG7ij1drQoPFZV4KwqtLITnkFR2/uJwJDhG5Pe2ZnJjCTakevkAL2jdYS0UJf/rgDgwXMzziuavBYoOtHkXKiuNQ9d5RtTnyhuG5/Y7b4bwdB8N/UWcBituR8h8nnahe6HX5X30F3gSIVQe7sy2v7vfZXgIaDVevqGIKvxot8uf8Gj73bWL+1OFd+I+JaTAwIHczUioST89uPuiwzBH2V+mDM85R9pSr1u2lKZ6FDzRF+79Bd0v8ovjC+M4PsP37P9b4MIpVXYCPzC2SygPhjH+SSAQaMPyk55hAZ4XX6B157POyQ94L6f1+YGmroGe2zW9tXGrL44GYVB4QFVV6RyS0ljNZbefHXNdl+sWpiOXrZyz9yJbgxnxoATRwB9vBgsgg8V7T433IHWgxFBWMBxsDvkP/NhyLonzUFHDEifPcIo93L8S5HiYZJp55WiQt2bubhsdOqDOZt3txVhPhyQXHFRUUBEXJmlpnMByhOFW6KFqGD2Bj2Wsv4ccXI5RdgRMpgjkK1UgQz44erRST3jfNtc8iR5R7i8Mgh490Fb7vH/a9GKAWBwILXQq0d2iQ+LzdN3L52hekwVUvKijPHTbQMRtG4TxtkHIsKSb2GtKujw33YB2glWECDcUiMet8lI6x/HFTdTfhBQYD6yEVAacFLdP5t4O9vcQNOXbU54uK/LFN5G7om5yggE92147yQS3CgfJCx0XVVqIDOZbFe9vZOoKdBzaEcALFkJP2ZVhHmf9gBP9oXU27ikWp2PZb/4FvWNdxZk3Pl13We6FgYXdVgE9Edyf2SmZW9q9nnajTxjg15WZIuQ83sHwwndDzT1GNRRuTNbhZ34YmfRdwHcm6EuIilfzv6TQpWQELzrClRHy233MC40afAL5DXNsIkp7fp9ro9vbhl5o4OhtXT1NnuXjmuizk7W4Ur9h0uA6UEFDjuGrEp30dOxobsZfBfN08zpuZxma7+9/yxb7QKiMASY7HDTfJg15zJ+uOp8B1oAeAoNy5adzyvQ+K8uOTt5s//KFvY7ZX52QbnUT0smXj/nd9N//ONy80Pee6L8JKTBQbI0CWjq/Urg7U5hDBH8jAIJgXSbZX8A0ioSK3PJrS3NhATSoElBWeh6b6Y8f22p7XNTH9AkdtvgngCU3ynEZp4HQwoTggtPIaJSI+QAhNnPkxL2tzD/5aKr718ihXO/lTn4JgUmRVlJQ89+saOKSAn7hc7+Tz/uvJ7/03kjIrdm2jfdud4185egFLaBftIR9TEiB4TiqpKrk3NRnWqbus+Yax0Gf+UolKvCAljLrf4PNW4pB7emRUGkwDYyKKP9QaQSTXvI79BoFA+ppXlMChBwSdznQtK2OJ30JFItkasC9mfAReg5tGZeBT/loqvv3z120t+l0OkgmcM5H06XXr2PRjTA1OAWlgGy3ooN2bvDOErxm1VHrmvEbnS2qO3+Xg39CCswxu2zyLzLste3Cx32AaTH3BA6h/fKGcxyalKF9DyqqNKMHUmBfC6x7+HNDYMipmF763UprxmVxr/Y0PpGKXVDTKvJBK+DhMuVm6GU0/zvmvvkcNjXw7yURzB9e7ym8ViUZBL20GjemoeHomDTxLk3I9qoyB6qpRCBEZ91cT55I30D+Kz6wMnlC+CSkwDgVDNquikKGfSmocx2+wIf4zU3IthROPOp7L/+FVlmLiGNWR8NHPj9QEFXSEGk5LlmStP7jOh95tf02NeBXEdxh6e8kgq6ZucM95q2DnneQ214RpBFQGu/Z0jpZ2FrhWfEUxMYbwIE2rV6KKTCBi1GcCmxngG41yIWs3PM6Gz64p4V2MMzz1qbquOM6Hjs5vQlh4I+0OkTnh/5zSC9PuMvzBDZ3/Pq4e1xQGgn3mpACozGZQF4qCpg+GfmKpf9JLcwFSQL3RXDB0bkN3Db8f36lRGD8HTB/oGEcJgKRQ1ss+8Wt0sfWRnmxjkjQ21U4kSDu53OeD2wSquv/vXokSiOaam6toAx8kmQiQg9aARAEy6BrHlefmxBISWEkwq5ieaS3NygPxGAeFP7a8nuvMWzaOMo85qYM04A6etSDk939htTxTBlVV36yfx20HLSMlTBFHhHtsSkDy5NI0IfQ6w0J9jFQOUAHoASYpiwfbHq690rbbMU3NIP2MoXY7XP2W8qHMRBPgX0x57wjIb/q5YIu66B3RnT5gHi6a9Lv1621fV/gQdPKFRrQKLgJquffm9JGAC6G/aJ3K0N5jxqcy7uaG7Z/m2elPWdFjwJzi8XH+De+Oibu3Jin2dWvCV04LdFdu87+sQxNBDWz8TkCtj59kqWvdvk8/H6/OuEcBBP847m5qOCBDvg0BNE/BBap5b3dSYenz4RseSuWAuXGLoKSJcFdwn0AtIgNe2cFoQ7zklQdOurvC8Ig3rHZNnVvKWkDdUwGgeKa6DU7yC1gSetHWOwmVgxNop+8IFBFp+4+J1FN2WV13w03zem+2j2NkysWB4MzABLgaWjQLB4Gc7DgMN97k2R8aNga69EyCbcpFz4I5ImM5h8imxvwtt/yjnElBU6+vY3wSSjYtg6GVmMayi+/42N48Rew54eusa0GFT6XY3CsGLrGmtO3Hr//jhaGfe2SEM00PlLm1j61y309VgIHL1QJ0y0FHQlimXCvCScwv5ZIbZSgDY7UPKN9Hb6StuujAeb/+pcIbTE/9PeAZ9qucn6TbRrM6wwccdhhUH55HQh54VM5zrlrSo0LsLvcorE8E9TUJE1Q9izsoV9Z7hnm4ckO+keeOahZiUFb5e9k2F2ah3Dbih4lsBegFbuDzr7xxmbmwAVVYDJls+MLK9Ho6eLpUbsyAcZzE9blS+L6AqsbWpwLbQ5GGIa5MGYONDcwg3w3riN87p+XRHwObAYS4Atk0KZCS1c5p3LFkKJyYHgfMO+wEf99+pSUdkFgjXUl3Dar/tX62AUWxf794IWcwNkF6IN+lofV5GtsunZVD53jLY5qAKCLDXQUv8oYUmGxcEqRLONZgfQI5Z53d/ytTJ5AtXded7EMoLeh6zBmUFBYvH/wDOEVCULaVIvZ1SzPHpSCi4P5Jtp7wgnMrrNKMuiCQR8slP8RrRYKRSmKB/w2JlRI4/nzk6GA25g1dYP5gRoA+9N5n8P00TLBGgVUvwH0ULmCeQa/bxiGXUaOvE21TQFx9RbU3uj5T0MjhumCOndfH+Nj/VL5+5I06CyB+JUF5yIfyCfRm1F7C1nbOUkY/OkgU6Xe5XSx/WS6kZvcKRltFPQGRMC0KNJaF02L8oTdsUW9U9GMOznD6+pyXbOpwhR3zc20TsOLo5Ocy0HSy8cSMnLqW5oNoeaoUT/ktqb4yI4S/r8SUcorMyEOoWOq4Pg0KHZ9QVM4Os25hNaF8iDsNLlRqhhci3vX1WxO4kUdTK+8TTJsS+MaGfn8peURwz+81NO86N8HHZmwbFE+LNTyLneSyfhM+FiVQ3rCPA58/w098n/+tt/5yPcnybMw8QnYugDDPJyhk1fc21SaO76leU9lLhd8RmWm0iHvZ/QP+CW/uNf18Mazyi2FbtQRupOKHuUiA7Dqto6v614wr5P5JTqffOuif6L/VPrQRP8glv/ICEBlrwMUBh8VVOY833O8v8AzPSiuDfhG3DUaRM9eGQIMAYYAQ4AhwBBgCDAEGAIMAYYAQ4AhwBBgCDAEGAIMAYYAQ4AhwBBgCDAEGAIMAYYAQ4AhwBBgCDAEGAIMAYYAQ4AhwBBgCDAEGAIMAYYAQ4AhwBBgCDAEGAIMAYYAQ4AhwBBgCDAEGAIMAYYAQ4AhwBBgCDAEGAIMAYYAQ4AhwBBgCDAEGAIMAYYAQ4AhwBBgCDAEGAIMAYYAQ4AhwBBgCDAEGAIMAYYAQ4AhwBBgCDAEGAIMAYYAQ4AhwBBgCDAEGAIMAYYAQ4AhwBBgCDAEGAIMAYYAQ4AhwBBgCNRyBP4fzkYyhiA641oAAAAASUVORK5CYII=;snapToPoint=0;fixDash=1;enumerate=0;sketch=0;" parent="1" vertex="1">
          <mxGeometry x="37" y="919" width="75" height="75" as="geometry" />
        </mxCell>
        <mxCell id="vl4gCE95MVzYSTKUqyQD-18" value="MinIO&lt;br&gt;EventSource" style="shape=hexagon;perimeter=hexagonPerimeter2;whiteSpace=wrap;html=1;fixedSize=1;fillColor=#8095FF;strokeColor=#9673a6;snapToPoint=0;fixDash=1;enumerate=0;sketch=0;" parent="1" vertex="1">
          <mxGeometry x="345" y="292" width="89" height="62" as="geometry" />
        </mxCell>
        <mxCell id="vl4gCE95MVzYSTKUqyQD-57" style="edgeStyle=elbowEdgeStyle;shape=link;rounded=0;orthogonalLoop=1;jettySize=auto;elbow=vertical;html=1;fontColor=#FFFFFF;strokeColor=#99FFFF;exitX=1;exitY=0.5;exitDx=0;exitDy=0;flowAnimation=1;snapToPoint=0;fixDash=1;enumerate=0;sketch=0;fillColor=#8095ff;" parent="1" source="vl4gCE95MVzYSTKUqyQD-16" target="vl4gCE95MVzYSTKUqyQD-21" edge="1">
          <mxGeometry relative="1" as="geometry">
            <Array as="points">
              <mxPoint x="447" y="497" />
            </Array>
          </mxGeometry>
        </mxCell>
        <mxCell id="vl4gCE95MVzYSTKUqyQD-16" value="Vector&lt;br&gt;Ingestion&lt;br&gt;Sensor" style="shape=step;perimeter=stepPerimeter;whiteSpace=wrap;html=1;fixedSize=1;fillColor=#8095FF;strokeColor=#9673a6;snapToPoint=0;fixDash=1;enumerate=0;sketch=0;" parent="1" vertex="1">
          <mxGeometry x="422" y="292" width="106" height="64" as="geometry" />
        </mxCell>
        <mxCell id="vl4gCE95MVzYSTKUqyQD-19" value="Retraining&lt;br&gt;Sensor" style="shape=step;perimeter=stepPerimeter;whiteSpace=wrap;html=1;fixedSize=1;fillColor=#8095FF;strokeColor=#9673a6;snapToPoint=0;fixDash=1;enumerate=0;sketch=0;" parent="1" vertex="1">
          <mxGeometry x="423" y="361" width="106" height="64" as="geometry" />
        </mxCell>
        <mxCell id="vl4gCE95MVzYSTKUqyQD-20" value="Retraining&lt;br&gt;EventSource" style="shape=hexagon;perimeter=hexagonPerimeter2;whiteSpace=wrap;html=1;fixedSize=1;fillColor=#8095FF;strokeColor=#9673a6;snapToPoint=0;fixDash=1;enumerate=0;sketch=0;" parent="1" vertex="1">
          <mxGeometry x="345" y="362" width="89" height="62" as="geometry" />
        </mxCell>
        <mxCell id="vl4gCE95MVzYSTKUqyQD-27" style="edgeStyle=elbowEdgeStyle;rounded=0;orthogonalLoop=1;jettySize=auto;elbow=vertical;html=1;fontColor=#FFFFFF;strokeColor=#99FFFF;shape=link;flowAnimation=1;snapToPoint=0;fixDash=1;enumerate=0;sketch=0;" parent="1" source="vl4gCE95MVzYSTKUqyQD-21" target="vl4gCE95MVzYSTKUqyQD-43" edge="1">
          <mxGeometry relative="1" as="geometry">
            <Array as="points">
              <mxPoint x="222" y="768" />
            </Array>
          </mxGeometry>
        </mxCell>
        <mxCell id="vl4gCE95MVzYSTKUqyQD-21" value="&lt;font color=&quot;#ffffff&quot;&gt;Vector Ingestion&lt;br&gt;Workflow&lt;/font&gt;" style="sketch=0;outlineConnect=0;fillColor=#FF7566;strokeColor=#82b366;dashed=0;verticalLabelPosition=bottom;verticalAlign=top;align=center;html=1;fontSize=12;fontStyle=0;aspect=fixed;pointerEvents=1;shape=mxgraph.aws4.iot_analytics_pipeline;labelBackgroundColor=#000000;rotation=90;snapToPoint=0;fixDash=1;enumerate=0;shadow=0;" parent="1" vertex="1">
          <mxGeometry x="304" y="601" width="134.29" height="72.31" as="geometry" />
        </mxCell>
        <mxCell id="vl4gCE95MVzYSTKUqyQD-26" style="edgeStyle=elbowEdgeStyle;rounded=0;orthogonalLoop=1;jettySize=auto;elbow=vertical;html=1;fontColor=#FFFFFF;snapToPoint=0;fixDash=1;enumerate=0;sketch=0;" parent="1" source="vl4gCE95MVzYSTKUqyQD-22" edge="1">
          <mxGeometry relative="1" as="geometry">
            <mxPoint x="761.272727272727" y="742.181818181818" as="targetPoint" />
          </mxGeometry>
        </mxCell>
        <mxCell id="vl4gCE95MVzYSTKUqyQD-58" style="edgeStyle=elbowEdgeStyle;shape=link;rounded=0;orthogonalLoop=1;jettySize=auto;elbow=vertical;html=1;fontColor=#FFFFFF;strokeColor=#99FFFF;flowAnimation=1;snapToPoint=0;fixDash=1;enumerate=0;sketch=0;" parent="1" source="vl4gCE95MVzYSTKUqyQD-22" edge="1">
          <mxGeometry relative="1" as="geometry">
            <mxPoint x="649.125" y="799" as="targetPoint" />
          </mxGeometry>
        </mxCell>
        <mxCell id="vl4gCE95MVzYSTKUqyQD-22" value="&lt;font color=&quot;#ffffff&quot;&gt;Retraining&lt;br&gt;Pipeline&lt;/font&gt;" style="sketch=0;outlineConnect=0;fillColor=#FF7566;strokeColor=#82b366;dashed=0;verticalLabelPosition=bottom;verticalAlign=top;align=center;html=1;fontSize=12;fontStyle=0;aspect=fixed;pointerEvents=1;shape=mxgraph.aws4.iot_analytics_pipeline;labelBackgroundColor=#000000;rotation=90;snapToPoint=0;fixDash=1;enumerate=0;" parent="1" vertex="1">
          <mxGeometry x="462" y="602" width="134.29" height="72.31" as="geometry" />
        </mxCell>
        <mxCell id="vl4gCE95MVzYSTKUqyQD-28" value="" style="rounded=1;whiteSpace=wrap;html=1;labelBackgroundColor=#000000;strokeColor=#6c8ebf;strokeWidth=1;fillColor=#dae8fc;snapToPoint=0;fixDash=1;enumerate=0;sketch=0;" parent="1" vertex="1">
          <mxGeometry x="541" y="794" width="239" height="115" as="geometry" />
        </mxCell>
        <mxCell id="vl4gCE95MVzYSTKUqyQD-35" value="" style="outlineConnect=0;dashed=0;verticalLabelPosition=bottom;verticalAlign=top;align=center;html=1;shape=mxgraph.aws3.bucket;fillColor=#FF5D4C;labelBackgroundColor=#000000;strokeColor=#d79b00;strokeWidth=1;snapToPoint=0;fixDash=1;enumerate=0;sketch=0;" parent="1" vertex="1">
          <mxGeometry x="329" y="872" width="204" height="117" as="geometry" />
        </mxCell>
        <mxCell id="vl4gCE95MVzYSTKUqyQD-29" value="Postgres" style="verticalLabelPosition=bottom;html=1;verticalAlign=top;align=center;strokeColor=none;fillColor=#00BEF2;shape=mxgraph.azure.sql_database;labelBackgroundColor=#000000;fontColor=#FFFFFF;snapToPoint=0;fixDash=1;enumerate=0;sketch=0;" parent="1" vertex="1">
          <mxGeometry x="796" y="797" width="68" height="83" as="geometry" />
        </mxCell>
        <mxCell id="vl4gCE95MVzYSTKUqyQD-38" style="edgeStyle=elbowEdgeStyle;shape=link;rounded=0;orthogonalLoop=1;jettySize=auto;elbow=vertical;html=1;entryX=0.5;entryY=1;entryDx=0;entryDy=0;fontColor=#FFFFFF;strokeColor=#99FFFF;exitX=0.94;exitY=0.5;exitDx=0;exitDy=0;exitPerimeter=0;flowAnimation=1;snapToPoint=0;fixDash=1;enumerate=0;sketch=0;" parent="1" source="vl4gCE95MVzYSTKUqyQD-35" target="vl4gCE95MVzYSTKUqyQD-28" edge="1">
          <mxGeometry relative="1" as="geometry">
            <Array as="points">
              <mxPoint x="590" y="931" />
            </Array>
          </mxGeometry>
        </mxCell>
        <mxCell id="vl4gCE95MVzYSTKUqyQD-8" value="" style="shape=image;verticalLabelPosition=bottom;labelBackgroundColor=default;verticalAlign=top;aspect=fixed;imageAspect=0;image=data:image/png,iVBORw0KGgoAAAANSUhEUgAAAC4AAABaCAYAAADHCmTgAAAAAXNSR0IArs4c6QAAAIRlWElmTU0AKgAAAAgABQESAAMAAAABAAEAAAEaAAUAAAABAAAASgEbAAUAAAABAAAAUgEoAAMAAAABAAIAAIdpAAQAAAABAAAAWgAAAAAAAACQAAAAAQAAAJAAAAABAAOgAQADAAAAAQABAACgAgAEAAAAAQAAAC6gAwAEAAAAAQAAAFoAAAAATPiDngAAAAlwSFlzAAAWJQAAFiUBSVIk8AAADIhJREFUeAHtWwtwVNUZPufeu9mQ8LAg4GOm0voodJeIyeYhFYTpFJLIszYITut0WrWUWkftTIsII06pL6oj2umo1RkfVBzQ0grkAVUYBBLChshmU6k6PhBfFEEgr83ee06/P8kN97W7eeymw9TDwD3nP+f8/3f++5///Oe/C2cZKuGCAp8eGzuJMz5HMjlfMlakcv6+Idn2LIVtihniranNNScGKp4PdGKyeTtnzNBGHB/2uMHlj5jkYwUD7J6CheAP61QY3yukXFPcXPWG2defZ9qBV15W5h8/jL+pS1loBewFSuNcSs7mF0Wqtnj1J6MpyToH0jcmW67VpUgJmnhjcVwIub4hWD6nv7LSChwGwTlTfiUcKGDbLEfRGDTs6GFkRCMNLp7eP/H7Y1ydSQhpBX4gWPaSwYSNJ+fcgPzf68y4WpHKTzTG6p14sGEv5L6stbRwZ1+itk1IokF9pSucz7COJRSq4Dd8OHH4fQWRqrqC6Lb13JALVEV51zqO6tioP63PK13spCdqpw24ZKsVKaXPKgj+Q6hZcveiTZtI610l9HbNZ61KVpHKFJvmu7Qt+F3hgrk55thkz7QB52y1gMYd5i25oSsjnABmvvX3r2BCSzTGj1j7AD5fdur3WmmJ6mkDTgIEl59YBWEVHIfPPmjxfCud6oVN296PS3GVwtkHZh/GKpjzm9q82fkmLdEzrcCxAZeCIRR3tggpxstOY8POwIzhZ6ndNTo5FUVbjDd11OyDrauqVFJqvc+72GSc6lk/uazSkLLMOo6E+LAhT49uy5u5a1eHtY/q+wKzL1O5chAHVpdZ+bjCdC6WlESqX3aONdtp1TgxVbhYieP8tCmAnvQKOoW4PPd4zvNemw+afw/2fiPs/gsaDxOCjfE/NgXnjae2V0k78FCk5iDUVQjwLs3Cxy9iMfG3jaxCdYIpiFZuBdibcVh1mRo81EWtMr7MOc5spx04MS4+XPkOZ/IWgD9jCjKf2AezJlzZuu7wd+a5vE0xwKuSk82fBHoOi7mnLq+sxJxrfWYEOAkoilavx/v+OexbtwokQMIQy0779AetdLOeH63chPPzDhX/0EZFGPYHijbNfvOZMeAkoLipepPG1ZUA32IKpCeBh+tb2pBXfu++qyuGWfswVhZHql6QjP8Smm/D2Ok5x7NKrWOonlHgJCDUtO0hTVHucQZY8CAKosNV6pmWlTTOWdrOb3sGK1yOFUL56gu1U0onWMdkHDgJC0UqH0cEuwJvv/foJzqZAg6gFfWB8pUUMhDNLHCbenG06glcRO7GIkf6BL/N7KOnbbC1I931D6O5D2uSP0g+2lqgdYawdmVdsM4GzBzT1tq+TuXsYSHYrbuDpXkmnc6GIS11gdLl0PwDsF1boQVJLu8sjFQ9ZuvoaYQnlz4ipbKopaXt8pkf7uqwL99rRppp7a0dj8Fon6RNaGVNhw5uQ/cdCJQuAd2l0FHtMDUmtw4fmbOQ5g05cNIW9x+7HT7+SStwqiPAGmko/Fl4m9nOvsvfq4q1tLTfKYXRtU9cK3NOyFSbjn4eFy/GhVhAUaFVDhb1SdynF13TuONTK91at02wdmS6HmrY0qax+E04YVw3fCzk4ixdff5dZAwS4RhS4HTwHLyqbGy44Naum9KVke2t8ZOnlmgKP2i1eTJ+3EOnnfLLwv858NXw0wfyym8XcV7FOj670AQ09WhtOze0hTglPzdpPU+/VGhDepch0Xj4ilkTrwvu/zdOnMd0LqeoPtUmN9S85QguHL/z2HBle4Nll3pBtzHwGjAY2v6JC8fUB8vvN/zqPp3Jy4weD6gIw4WxOFqzHlo/aJWHCwlDnvEGK82sZwz43sAPpmi+WBTeeTmO9m+YAhM9ycbhTf5q7Sdbx5soXO3httMOvDlQMTwcLF+qcW13pxQX0Ia0gqG6UFTC5CqCi0Mg2uIZLOfiOQUFrouHK851cesHgeLmthOtzyD+QJZWuoSlYsWl+oHCEK2zs3OxwvNGnRrnUnDagNcGr5vkOyGf04UoSgUwUb8Usq0rBrO8D/j0LI+Xlp4jPxwovUblYjNOwSKLzET4EtKFKjXsR1uBnRmufB1GDErjkMH3B0sn47byGjyAawNCaBxjSIbLzm3oehpc8AuwmW1jkf09c4k/17Ecj93qxTAR7WBe2RxkjnfA1blAI4b+VFPUOzDXdm1LxIvoyOAF8XAoU3ze3OzYsBjkMnpi0Jeye9LsC3XJXhaSjXOOR9gaZ9n+kjMdykYkPu1eAoO9/DjxQDZlOh42jWtc+dcidjZpSuOoDAh43eTrCvwafxv+2ZZZJYnIi9TCLC8tOvCPj0e4EhBdMj3/CU+eOxE3+h9bO+mmH+Nim5Vm1vsNHOmy0SoTr0HTo0wm9CTQOPkalZg2ryi6/WOzD17BpkGiO/04RYG4wD2HeNyWpgbTd66OlOw0eVmf/QLeOGXBecgB7sBGvMjKhJDh7x4/N6aF3tly3NqXqi4rKtST2XypzkTINhYX67jkayh9baP3NPoDHLnuznUAPcW5xWHHDYaqLaYw1UuIk2baOPjwxsOtd0smHkIYYzuwkPg/Ijjf6pxrth072CTbnySgIVh2G4Kkm5ygFYV/5FP59cWNW225cTsHeysudCWMqK9B4XfjwPoZ8beOgMm1I5/yi2nRbSetdGu9T8Dr82ZNwJZfgaPYOhfS+HHDEIuKIzUf2TqSNXBVh/dYA05FiKC+befYvQLkHe8vjFbtSMYmJXD6tC1j6k746gscjBBQ8LtKmmts33IcY1xN0i7e3GJXBwhQO7L6yiuFhyrXePVbaSlt3IiNvwOCvmmfxPHNUvkz93+RMPFO42PxWEr+Jl/6rAhFPPDBFbmUnkhZkmqcbuJGp34f4gebDeK0DOeI3LsCDQ3xZBI0pt5C6bNkY4gxPh+2QkZ5KFr5ZmHUYY8JJicETr71q5i+GX7Ylk1Frk9HrnV5oHlTpxfPQ3mzxhlMLcWp+lvsi4DXGKIRYPz9HBvxlRYmH5rZVHU00VgvekLgJ4ap+ULq11ondQtTVhVFKl+30qm+c8KM7FGjcm+MS/lreIoAbNl+mFgmAKyOuORPXGpPhMa0HuFIcFq6+1T1BL4xUJElZctacHDkNfh7ujCetnKmQykej01D8LACgIvh52l9CQt9tNU4m1YQqalLOKgPHZ7AJ/C2RbDN71nn0w8JsIGWl0RqTN/Kkee7Qddjt+P75lWwzGyna7PO763D1/E4/6y3PcCKCzhdv+SXxq3OgB4LeaMkUvUqfUHwt7R9F57rUXib6dCwp+getXegl96a7S040xOeDFIQXe7Kf2zYZARQtusXpOKzI3u4Nq90nnamdaMujT3IrnqCJoS4reP8Vl5VuHYzmn2Ox1NgtXW7NI7j+y+47NpsG2BO4y54f5ZU8zvdMX0vw56k/dtwcD8MNW05HL5i7vkiC7+X6JuH6+XTl4oNeDhvbr4h9ALnRIRnoxE7jDY8QPdoOIaYZQeSDhvah5/cPLW2tr2LB8XjMSe39LRtwHWpU8rXk7MXlT5IwbVFhCGXjTnd1vAt5L6dk73iceeYgbRtwKG9hV4ArYxJw/AuiN5kI77LPIXT7kXgTzXNyiIt9V7g9FML5DXospqwwCXCavhe+OF1HULsnNpcfcLuLxJOtXUIhS7/gysmcK5IdTkCek9u0HIcv244DNyPMN+xl/JTxCgOJvSSbEVCmo0wgEYXcJx+ozqN2LVObmTDcNNhmMWj7T75z+mN1f8ZgAwnW6Ya9jTzAHh25zDirHMCbuy9URxUJPDl9EugXoVv8k8NhHGm53RpXMTFRCjXj00HL8Hegt0+K/ydG4rrX/9ysAAQKOCluZQ+WLbdGgfg6dh4COzEslDTiOe4RwJm0JLSzKB7c0q5Pzcne9Wk+s2D1rATX0b9eFVz9YurKQN2DpWuIGuoQafDj7uiwwwoPSN+fCiAu1xKOvz4UADPwEscYJq5P0jIj/dnfF/Hfq3xRJry8uPO/HiiucnoX2s8mXYy0TcUGnf5ccZcN7x+r20ogHt4lex+A3VOGArgTplpaWccuJcfN78BDWYFGQc+GHDJ5mYc+Nd+3KH+jGvcwxcCwjngDuELvbE7NNjfZmY13v0/JM49P+7LjrUje+D6Dx791a7X+IxqnL7tVzYVX4Lvl7ZfcZ4Tfnw1fv3AVXU+NPRxOo09oxo3X3Hhoa31+J3sVHxiOUa0cyoex4evo/id5PX4r2EfmQsazHNING4CDB2q3uPjaoVqxE+ZtP+7538B8GWAWlK4kOQAAAAASUVORK5CYII=;snapToPoint=0;fixDash=1;enumerate=0;sketch=0;" parent="1" vertex="1">
          <mxGeometry x="376" y="923" width="25.56" height="50" as="geometry" />
        </mxCell>
        <mxCell id="vl4gCE95MVzYSTKUqyQD-40" value="&lt;font color=&quot;#ffffff&quot;&gt;MinIO&lt;/font&gt;" style="text;html=1;strokeColor=none;fillColor=none;align=center;verticalAlign=middle;whiteSpace=wrap;rounded=0;labelBackgroundColor=none;fontColor=#000000;snapToPoint=0;fixDash=1;enumerate=0;sketch=0;" parent="1" vertex="1">
          <mxGeometry x="399" y="934" width="60" height="30" as="geometry" />
        </mxCell>
        <mxCell id="vl4gCE95MVzYSTKUqyQD-44" style="edgeStyle=elbowEdgeStyle;shape=link;rounded=0;orthogonalLoop=1;jettySize=auto;elbow=vertical;html=1;entryX=0.5;entryY=0;entryDx=0;entryDy=0;fontColor=#000000;strokeColor=#99FFFF;flowAnimation=1;snapToPoint=0;fixDash=1;enumerate=0;sketch=0;" parent="1" source="vl4gCE95MVzYSTKUqyQD-43" target="vl4gCE95MVzYSTKUqyQD-4" edge="1">
          <mxGeometry relative="1" as="geometry" />
        </mxCell>
        <mxCell id="vl4gCE95MVzYSTKUqyQD-43" value="" style="shape=image;verticalLabelPosition=bottom;labelBackgroundColor=default;verticalAlign=top;aspect=fixed;imageAspect=0;image=data:image/png,iVBORw0KGgoAAAANSUhEUgAAAbgAAABmCAYAAAC5iYRYAAAAAXNSR0IArs4c6QAAAIRlWElmTU0AKgAAAAgABQESAAMAAAABAAEAAAEaAAUAAAABAAAASgEbAAUAAAABAAAAUgEoAAMAAAABAAIAAIdpAAQAAAABAAAAWgAAAAAAAACQAAAAAQAAAJAAAAABAAOgAQADAAAAAQABAACgAgAEAAAAAQAAAbigAwAEAAAAAQAAAGYAAAAAzZKFZQAAAAlwSFlzAAAWJQAAFiUBSVIk8AAAMUlJREFUeAHtnQmcHFW59t+ePZnsKyFAEpIQSBBIWMMissgiCAhcRBRExQ9F5SKLV0WuIIsLbggiioAim7gioEhYwnIFwk6AIBhCFsiemcy+z/d/qqeank5VdfdMd89k5ry/eaaqz36eOnXe855zqsrMiWPAMeAYcAw4BgYgA7HOzs7zqNe3B2DdXJUcA44Bx4BjYPAxMIoqPxaLxT4kBdc5+OrvauwYcAw4BhwDA5iBahTc6BIqWA08jcfxr9lW+Lbbbpv76quvzlqxYsX06urqUa2trcXt7e1SnNkmtVWGLyoqsrKysvaKiormkSNHVk2bNu2tk08++ck5c+Zs3Cor5ArtGHAMOAa2XgZOoOgHJ4qPIqqSFYecl3BMfzKUILeCFiBN5tCdgw442QD+F1QAJ44Bx4BjwDGQZwakxzxthl5TVkVZ5jeE8PeDOnA6KAVOtmQghtNYcBlYDy4FTtFBghPHgGPAMVAoBrJRcNdRqM3gI0AduJPMGBhGMFlyz4D9MoviQjkGHAOOAcdAbxnIVME9QEbnAGex9YxxDQh2A/8EsnydOAYcA44Bx0CeGUin4DStthwcCZzV1vuLMYIkfgN+3fukXAqOAceAY8AxEMVAOgW3isg7RCXg/LJmQJyfCb6fdUwXwTHgGHAMOAYyZiBKwS0gFW2UcJJ7BopJUlO+n8990i5Fx4BjwDHgGBADYQruKvwOcxTllQFtPrkSHJ/XXFzijgHHgGNgkDIQpOB2hgs9E+fW3PLfKMaTxbn5z8bl4BhwDDgGBh8DQQrudmjQ825OCsPAvmTzlcJk5XJxDDgGHAODh4FUBSfrbe7gqX6/qGklpTijX5TEFcIx4BhwDAwgBlIV3B3UzU1NFv4CzyLLzxQ+W5ejY8Ax4BgYuAykKrjZ+awqb3dOJJ98nnAcvCfDqbp7AHzwXn9Xc8eAYyAPDCQU3C233LI36ZfnIY9Ekofsv7998dOn27gxY+zMU06yX3zvCpsxbWrCf5CfzKT+0wc5B676jgHHgGMgZwwkFNxzzz2X97W399assY8efpjdePVVdvhBB9jxR37Y/nHbLXbWJ0/NWYW24oT0lhNtOHHiGHAMOAYcAzlgQN+D82T9+vWT/PN8Hddt3GgNTQ32saOOsM11dVZRVmbjx46xyy/8qpWXlNrPf/u7fGW9NaSrzSYHAq2DOnEMOAYcA46BXjKQsOAaGxuH9jKttNEbGhutvqHBikpLrXLIENPHQvk4qk0YP87OPuM0O/bwQ9OmMYAD6O0m2mzixDHgGHAMOAZywEBCwTU1NZXmIL3oJNhjUlISNxr5KF0ibFtbm83eaaadw/rcHnPyus8lkWc/PdHbTZw4BhwDjgHHQA4YSCg4lMz7WxxzkLCfRIynDirKy+2IDx5od/78Gjv6kA9Za3Oz7+0dpew6OjrssIPmsy53eDe/QfYj71b0IOPTVdcx4BgYxAwk1uDywcE5n/6UnXLcsTZi+HAbNWK4TRw31kpLSzxllpqfFFz5kArbd94ettOOU+3Nt99JDTIYfudlkDEYiHN1dAw4BhwDqQzkTcHNYcrxlOOOsQ/ut4+3ziYrLW6pvT81mVqY9tY2222Xne2gffcZrAoulRL32zHgGHAMOAZ6yEDeFNw4dkeOGTXK9Gy3NpJkIgo3edIk+8Aubq9FJny5MI4Bx4BjwDEQzkBiDS48SM98Fi95w95evpLIMSsu1gbB9OJtPCkush0mT7aJ4/WifSeOAceAY8Ax4BjoGQN5U3CbqjfbJVf/yG649Tarq6+38qFDrZRn3bTpJFKw4radMMFbh4sM5zwdA44Bx4BjwDEQwUDepiiV5+Il/7Zvff/Hdu+CR+zoDx3sbSCZMXWqVVYOtU42lQRJR3uHjRk9yrbdZmKQt3NzDDgGHAOOAcdARgzkVcGpBBurquyBRx+zZ154iXdQjrarvnaRnfiRo62lrdm87SbJBp23Xtdp40ePtek7TMmoAi6QY8Ax4BhwDDgGghjIu4JTpnoEQIpOD3S3NbPhpJ01ubYibwOKxdXc+x/piXXaiCHDbfuJeX9zWBAfzs0x4BhwDDgGBggDeVuDC+LnyAMOtrk7zTFrareYnitvBSg603kXOnErslIbO2K0DR/mXuwRxGN/dWOTUEbtKdNw/bWerlyOgVwx4O6FXDEZnE5BLDhlrQ0mh+19gO04caq1NbL+1tm13QTd5plv3rHrGTneUTm8bJiNGTHSankps5OtgwG+8dfBDXsspT0RjAbJC63eFcbtLsLdzdGJY2BAM8C9sDsVPBPsCNpAsujViE9zL1yV7OjOc8tAwRTcDttMRrlNsWKrYJqymb2UXcqMKcn3xe8DY1ZZUmmjh4+y5fbu+97ubGtg4BgK+QmgbwumXlz9rgJOwUHCQBJZIhrgpKtTpuHSpbOV+O9GOT8JxoHke0HF12zHdOAUnNjIkxRMwW03bhsbM5RBPa+hjGlqMiGcJ//03GM2rBgFVzkyEcqdZM8AnYkIvBmkjh79xJZw8p1MOiY/QgZHfZ28DOiqpl5Z/XbzzpAw0ERtiPZ2IfU6ALSk1E+deTX4A+EeTPEbyD8rqNwQEHQvqN7uXhALeZSCKbhxI8bYsFKup5q+917n1L4vqZaMAytLmKIcplkuJ71gYAxxPwZSR49+kms40QgytUPy/Xty1Cg+LD+ll3aU35NMXZx+wcCnKIWm5VKvsW52tbEGMJgUnO4Ddy9AQl9JwRRcZVmllceYtWph7a09zV6EDqYoi4faqKH6yLWTXjCgV8iEjR6VrKytNBdDwZw4BjJiQO1JEtSmZNW7KRmPHvevUAwUTMEVx4qtuCP+eIBnwUUYcMaTBEM1RTl0VKF4GKj5RI0eVefUkfZA5cHVqzAMRLUntcUo/8KU0OUyqBgomIJraGq0liaWgvT8mx4NCBPdBkWy4Cqx4JyCC6PJuTsGHAOOAcdANAMFU3Drqjd476S0Tqy49rA9DxS2a5xXFivzHhWILr7zdQw4BhwDjgHHQDADEaZUcISeur607FV7fcWbPNzNQ96ssZnQHkeMYwKeO7nESq2yTBuQnDgGHAOOAceAYyB7BgpmwVXVbbb/vLfMWhqbrKy03GKdTMdHrRCh6LYfM9nmz9yLV3118lqv7ot2PCce15HUuQO/uK6MWSsLeLV1NVZXs8ma6mt5PVguNwhmT7CLkVsG2IqunUf6lpI2NKylXazObQ7ZpUZ5dlYMyvFGdjG7hyadbXGZAJaR1ubuvrn9RV7a8KG8hCryW5bbHLJLjfJk9AxdWKrE13b7sUC7hhdTn4gporBUsncn35nEUr6vkmefvZGCclRSBrVDrXG+Rln6fafX22tOPTOSgik4laa5pYXZSdpeCbspveVmtFSYkuPr3ntN3cOu/fR3+RJ4Ul3iRp+3T6WZtbpGbNCGkpiH+uKY1RV3WlVrk21uabA6jtX11Va9cZ3VVq+zqneX2+YVS60GdGT4EdaknN1pgRngJjicLPcFe4MpQB2Y2qyg2Yc2wrRyrAWvgZe5ua/kmJWQxpeJ8HGQej8oDz0reDHpem8cIOxp/D4K7AmkbPVAu75WzxOetgm8Da4j/MMcA4WwSvdUcBzYFfjPDir/FvzVWS4Hj4Ffk9Zajj0S0lI5jwCzgR4s3gaUAuWlozhs4igOV4IXwM/Js2ADB/LSM3QHk++3gLhIueNtI27fJ9zjHMW1OL8EqG4zQQVQfVj/sEb8FX4ZuJ04f+LYayHNiSSiFxgcCXYEml5SOZRvE/7ibxX4B/gF+eqRiLwIeR1CwqcDtR0NUlQGcSDeVBblrXb7ALg1XVkIP4lwdwHVSYMDetluonr+mHRu6+Ya8oP0dB31NiPdE76obGr3Ov6TtC7lmHcRMQUTKkVeQOaXh4is0Wpjho/lq+C6H1OE6O0oswboqke51YBaHUvjx9rSIqsrLcavyOqLOq2mqc5q6muspop1wI1rrXbtu7bh9Zds/eJnbd1LT6ck7n72JQPcHOqEzwMHgmlAN64sDq56pOyC73HEP5PjH4GUkjeM4jydqNNSfkGizuwi0j2E46VgLtCIWTdrqmyHwwfAIYR/jqM65QXJgXA/g98XAdVNHUpQOjjbTuBgcCZxpDCvkWOmQpyLCasy67m0YUAchuWFlye8KNYOA2cR/1GO4lAKuxDi8UZGUlKp0oaDOuvHKdcPOarznAxUpyDZHkfV+zDCqy3pZQbdrkNQpGQ34nlWJUcptm+A44E6I7XHMJmFh9rRZ4n3TY7q4NWh50RI80sk9DkwFeiRi6jrKcX/YXAx8e7n+HU4qOYYJBoQjAa6BmFyHenI2ldaoUKY7+Cp9h3GUw1+vwpNIMceBVVw3qX2FVsml13fjOtIHgTEDT9twmxhCrNRSg5CGkmzSaAPbPbPmbNsQuk1EaaztNTKx06w0RO2seFFu5ta7OSD19nmd96ytc8+Yf+553dW/bYGPFtKaXmFlZRWWGNdWNvYMo5zyZ4BboxJxPoK+CRQ5xXU0eEcKjF8NNKcAS4AR5Ombmp1jOkkqqPQdI+shZOByphOVA51PlIUu+uGpwzXclSz+y74LyCFk4moA1d9vkv8A0lHcUOFMOpUPg++CHYE4iMbUdmVp8p6CjiINC8j3xs5z7dEDUZUrnmU5VmOe4BM+i3FkYUthXMXcX9APb7PeVohrK/cDiHwdUCKK9P2KM5lLd8MFoNeC+VRej8H+wINijIR1X9oF87iKGWva3lbamTcNGvwKdwfA6NS/bt+q01fRbjXCb8sOQxuPl8fxV1KOEy5teL3M+Lfkhw/n+eZNJSc5d/GtKA+nZN+MB6epfSiUvDW3LxjzDqYqoz/jjF1qXOOuOmFKXqmvBXN2trRZq0ov9ZYq7GkZ8UjR9u4efvbuNnzbNysubbptedt0+svWsP696y4qMRGTdjexk+abmPH72BDisutYdN6W/z03+zfi9UGnOSBgXmk+VmgzrW3UkoCu4NbufnO4IZKp+TUrMJkDB5ngzBrISye3MeBKyiDFONu4GgQpUzxDhR1aieSjl5UfWpgiLijOrRPg10iwmTqpXJqoHEN+bLMHbsp04i9CBd2HaRcPg4y7dxTi6BreCn10NSvpg9DlSlh/M76eMJKqYiDnojyPKgnEZPjUB4ptbvBDsnuWZ6LvxngF6Q3nfpflhoft1fwuwj364HunyBRG/4h4c4m/AY/gPjETQOP7wPVO0h0bR8mrAaLBZOCKrhapgqbWputcogGVj0TdFTSphIUGMloWNCKUmuVMsOfl6V4x1aUnNyl6HRswV/hvdbdyW5OdnQW8eWCbQ860rad90FrWvWOtW3aaGUskYwagcU3cqINLRlqFWjP4pZ2m7XLAfbgn39kLzz9V9YSlauTHDLwBmmtBrlQcH6xxnNyI9jed+jBMWw0mmlSauwXAnUyPVFufj6KexIdybl0Ej/zHVOOmtB4BGhtKlcipfJj8n2LfB/PVaI9SKenys3PStfxSiALJnQTT1dnfQJhfgkmgN5Ib6631hplfd4BetN+k8uvmYNvku57HLW2221Awe9f4yeF+jlArxkox+H6BPhpiu/l/N4lxS355+v8+EKyQyHOe3UBsi3ge1VrrIpNH2iVbKN64XU19BSB9ySBZ6WhuEiqO6TopMziCk/Kzj/3lJ0suwRQeKz1tbQ08nhekY2YMtO22X2+Tdx1Hxu2zfbWUVJsza2N1thcb81tTbbdjHl2/McvsR1n7s2uuZ7VoUcVHwSRuLmWUs3bQVua6mp84o1R0oTzvbfjpr3U/9FHR42Ic9FgNCD9Rlgd4LAJvx+D0A68K67PYbcOLixd3KWktQ4pi3RrFk2zfZ16pLPGryVcb5Vbr3iijNNIQGtV6ZRbO2Hqga65kO7+Ud1/ALTeuoXQhj6PY9TUqtqgOJTy9YTzb3FyRNfPoMMmHP+HtJcTNhf3QVAegW4FteBeWfG6vbN+pc3YfnZgYdI5esqNgUXcIpNiiysyKbAW1tq0q7IZ+mSpCc2e1Ra33Fo4l3WnNLxdmdzivFPFYmxC6cAsbGfWorUdx9ZOw7gjoO79TiNZpkABvxvZmTlx+1l24CFn2Jp337TamoSVnq7ozj8zBu4k2Elgv6Tgskre6YJGnoyQPGtIo1Hd/Ao7CkTJedxYV3KD5cLsVsOoArppJbI4VRZaStaijmkdULlGg7GA1hYp46nLJ6iLuAoSNcqfgEuTPNXpvQ3E30qwHqgeQ8FksAfYAUTJkXgeAv4QFaiAflobFXfiUJxJ+YrDdPJlAlwWFghuL8FPnKQTDSbeAOKUjsNbF1R7nNV1zqFnQhl0Xc4HURaRrt8r4B/gHeDzMJPzXcGhQAOTINH9ciX5nE47qgkIcBpu/wc0IAgStfmria/2MB+orGUgSMSTNlvdL0+O4qpgUlAF95+1y2zh60/avtPn2vBKOO6QJslMdDU9y42m7E1DcpQy85QaWqgR5dYkcO6jWUqvOG7ByZKTYlQ6mubkz/shPRYHa3lY7N56HhqwnXjFZNiBAtQ6XjFp67yprdl2nXukPXT/dU7BicMcCo3/XW6aP5LknkAd2GPg7+Bv+Klj3kIIfyqO5wLdaGGiG/UAsDAsQIbuywmnDuUhoCkXNaP9wMHgFJDpdGYjYReA+8BzoA6oYzwMnAiilA2t0VvIv5PjFgJP2vZ/PR7qdMrBQqA8fovfWxy3EMLvg+P/gI8B79bYIlB8XeZgwt5DOro2fSXqINUuxN8TYDWQhSwlrWtwBKgEYTIMjw9Tj/upR1Bn+9/4h3GgNBXnVXAruIk0qjl6QpqTOTkDnA2meI49+7cX0c6MiKpuTAMNTVevDQpHWT6D+09BmJI7Bj+VdwsFR5qvEf8y/L4HwhTXvvj9HuwEwgYWKuffSe8HHPtECqrgVMPH//20nbj3MTZvJ+6pLBScp9y6rDDfcpNyaypmF6Wn6Dhy7ik5T9nFFWDy9KQ2oohxNdEilFUM/eo9JK5zPDh4s6c8SofFhlXHSTvnJeTbTgDPmiPyyDGTbPTYybYKi5T1d6XoJHcM/JWk1DGv58a4MV2yhNEOuYWEewzoZguTT+CxMMwzA/e3CHMy+b2SEvZ1ft9MGRo4anqHVhgpGmlfQjqyspJF6d9HOk9yVL3DOg1asffsF4dQqcLna2A0+aiTihTCLCKA1vce5nhoRGApkclgWUSYfHppRHwb5T0zIBNZU2oLX+X4Q0CvECqn4KNBigYaCSGu1ojGJByCTx7H+eOUQdZjN8HtXRy04/VejmrH07sFyOAHcVVuKR8p4jD5PXmpPYcK/reQlvyvB0EDL7XTcwlzEWE1wOomuP0EPw00Zc2pzaWK3I4FQX5+2Oc5UTvsM4lqBHkp1GaeR6tt4h5HaWQqukyyutS6/c0iydaaHhdo5JEA78hl8xWdFKC3BicFRU0FqSMpS6Wpozf9mDjKSiOc8uqCFKAXBndvgwvxrKTERo6exEEDRye5ZIAbaym4CqiTz0gIu4aAl6YJrFFxT0XN5qvkk6rcEunh90V+LE84hJ88QNhU5ZYIjd+f+PGbhEPwSdio3AtNGmwmjv0SpFVuKcmfwG9NZ4bJNDwmhXnm2V237P9RpzOj8sFf3D4TFQa/qSBoIHIm7tz5oSIF9hXy2EK5+TFQCtqFKQvvArDZd8/iOJuwH4kIX0P6kcrNj0u4WziXog2TE/EYH+aJ+/8DiyP86RVD+ZJleSFlWCpOItLIq1fBM9auxaIsN2hIEWn7f2JtzZuGjFtuDZz78J6L8/yS1+Pim000PaleyqOaWtMMvUsTV3IoMfnjrmM7fjr3FBpHKTvPX8pO/sxslA8ZhrVXcAM4r42hvyfOjVIGSlLRVW51KlHmdJhFlEm1XyBQqHJLSkBlUEccJpvwuDPMM8ldVlxD0u/U02I4iFRyqRH836ncJf+mM6olnNZMwkRTf0PDPPPsLsV7fro8qA93rPe8YVTQsXgG3bwzoyLhp7UkXeNQwd9rgxzvIZCuY7YylQjTIiJ5Cif5ukWdk46s2bA2OQ6/IWF5UQe1wU8CtdtsRLMUWvN+TJF8TrJJIFdhgy5yrtIOTAf9EK7zA2KotUjBxNfd4utr3nqbrDZPuUnRxUyv6fIsOM6baOJan9PuSj0ULqWUeoX1W+7ykK7zlBuZeettHD2FJkXHAp2v+PxjrKjYWnncocNNTwZcsdw4cdOOIaWTwK5gO6Df6tS9DoRjQgiry5mu403nn0gv4OQ+3LTWk06WEkAdcZhpL0tzIUgnCrceTIkIKC5qIvw9L6gRh3uCqUA8hnZohFXZK0CYiGehL6SOjlJTXpGizpR6vBAZKP46MN39qTI81SHpdy3nbyb9zuRUluSHQVkmgbvCyKKKaquzqJ/SpWfLSHRNw0RpTAOvhwWAz1fJ70r8rwJaOkgnah+aRr42XcBC+BdcwbXyqZx27z2QQe2re5XFlBRN3HrrWm9jYqHBA0qNacl6KTdqEXdj+Imfpi/9tTcpx+Q7MvlcG0qK6BvVY3JBUGScS7lJKQpdik6WHAEoC7GJ00Yd1rNhpq0larDbvS7uV2YMcDNp7eEi8FGgEbVu9kxvZoKGSpjSCY2Q5KG3N0R1FH7Qak62UMC+J0dNL21M+h12qnTSTW9F5aNnqD5LGqeCeWAkKPi9Tp65FCn8TEWKX9crrM5bcAdfYwkf1c6k4IRsZAmB64AGZ5mKrlVU5yirS8iVzKbuC2iXoRuH8NNzkLuR4ekgiiN1r4+Ay0G/kLAGkLfCbajd5L0b0jOb0uTiKTdPWcUtMu2OlLWmKUlZbB5Qct7Llvktd4VJWG8pys3PzlNY/JC+kiLTpIJnsRFeSs+z2rxzlKPS6FJuRay5lZaW2ZLnHrbVq95AcSarSz91d+wpA9xE+xBXUyrzQa7bZm8uVtR0YXJ1dfPTYkKl26aG0FDxTiSqIwmNCocaEPwGHAWiLBK8typpzaK0DHMjr0NQUqOCHJPc1Aaak35ncqqBSqjiCElAZS+kaNo5k7Z2IeFOAFLAYaKBwxMoRO2G9t4IExawUO657kTSlnvN5nX29rrlXHbaCooj/lDaltGkcGR9aZNIfLdkXLn562x1NAMpOE+5oZT8xwTiyk0Pc3e33LbMIe6vK6JiCMrTW3fzjrzDEg0YV3D48yD4xlVv2xtvvGhP3X+j1VSvDUrSufWQAW4IWWs3gLk9TCKf0TLpADLJn5aVP4FD3c/fA/+Vv1z6LOW8cket0qUvxZNtO9A0crYzB9pLV0iR0lY3mE4uIEDU1Knii6MzaIf3oeSel0NfS8EVnCq8YPFC+8juh9lOU+agwbac5pNSiSu3+GYRraklT0vqywF1HlByXRaddk56yg1NlTotGUSy8pDEOJElpuG9LLVkpeYrN/kVYbm9+PCd9ux9N1pd1TpFdZJbBr5OcnukSVIWkKZ8gjoBtWVNM6XrqAgy8EQjZmp1KPhCmtrJotBUm6bwUq1a/Z4A1FENNllFhdXRh9VdbUvIRqYROJ1SSE0v3WyBOsxNIFtlm5qPfkv5LoqanlQg2taXOJwHMlHWOxLuR8Q5jnTTrhETNq/SRwruMfvzovvtwglTraSMdUvWtHzRHabey38cQEorYbVJqWG1eWtvmprkXIrNU26ca5elNpbIEstYFJZMle8WkDv+Qqy4xFYuWeSUW8bEZh6Qm+GDhD4ChF05NZCnwR/AIqBOwA+ry6YmMwvcATJZCCfYgBNNHWntMqoT0iaJP4GHwQYg7pJ51Lrfv8C2YFAJnbG+oyblEcafrLFsedmXOKGbekII1rSmpmPDyqHrtj/IZl2P4IFCb2kvB/p0OcLJzpz+L6iICpfidyC/fwzOSnEv+M8+UXCt7a1202O328xJO9pJ+x3PWAQtxUPfutuknHzl5q25SZEBf82tjhJ7U5OanvQUXHzdzXtTidbPiK90MhUvrG5xH5x6lhypSLHFPQjFeTtfB9c7KN3D3eIlp7I3qY2PSPEVOqCDIvw1ypRlJ0U4WBWcOuC9Ijiqwm9PeBRPoQKPma4ThqaxFXuspuxR65Znwo/e5LIxXR0JtythDkgXLsB/KW4rwY4BfnKaBOZQhgdC/HPmTB3Upu4EsuqzEVnBpxH/Ocp5QzYRcx1WGrxPRK/t+t59P7MFrzxC/igQLCTND/jPu2knpCw3WWweZL2h3DQ1KQtOys1XcHodl95uksnUZHJl4wpsS4Xo6TU/YJe21IYULli8rL7f1n9El3sv6O3rmugGKgsphKyzZ0P8kp01us52tJwcf2s/14i/MqISGiREKreuuLmwDCKK0a+9FlC6rjs+sJyyTK4M9ElypJ8Qhz8C2yQ5Z3r6GgEfiggs5aE358yPCNPNi7B7gstBlPLuFqfrx3Ucdw/y6HLTvRnGl+7FS7IpZ0Q+PfbqEwvOL+1zS1+yb919ldU3N9iHdz/UKitHWkNHi/ccW3erTcotjrglF7fi4lOTcYtPz6+FMe3nF3QMiiM3bTqJJ8gv/qTgSsqw0vWQuvc25qDUtjo3PTitUWZLD0uuAVI9eJvOM93aQVQWUQMtXYkw5eelSR0U/wIQlY4XdgD/U8cnhMnoMA/fHR6v4nyU/3sQHq+hzp8FYQMltcXPwJOouZ42/4pOfOlqh5pu15TewSDr9qgBJ+k8SdzPgbDrKSvOfy2Z3owTeO+RznaE+zg4G8wAH8BNr5vTTEekEO5iAihut/F+UqQazu8Ax4GwqVu5X09ah5HnJs4LLn2q4FTbRUtftK/+7hL7AjsrTzjgYzZmwrae5VbPpfXX2qTcamXJyXLrst7eV25MHXIJZP31RIKunradSKGpdeoo6KG44aMnWDGWZlsW79DsSZkKGEc38q1ANeyJ6AbUlMpF4MWeJNAVR41fN13QuoMug16OO4WbZHlX+MQBd60RnANOSDgOzhMNUrQjLqxz3gWuPgqH96bSg7s2T6gT1HUMuiVSowzI33DzFlw8TOWOjaigBltngcMJ+xTHJUAKZiSQtXMgGA96Iw8SWVOQx0QksgN+t4B/UQ7NcFQBX4nIkp8JZOVp2tpXlMdzfgPhz6Guai+Bgv90PKTgogaWPycNfVvuP4STVVsOgmQ3HK8HpwZ55tutzxWcKvjO+hV26d3ftX8tfd5OO+Ys223uB9kd2YFSY7uXlBvwLLiu6UpNXepLAVp303pdtlOTCVKTunXd1Z4y46iXLvuKzXsBs0ZsPJw+ftuZVlxabm28xWSAiKq9Yy/roptZI7UXe5GORsK6QSeEpDEZ939yM93DcRnQVNsIoFHpkWAXMGg7ZuouESfqbOfpR4Bo8HATHP6O40qgzQraOCBr4FBwEOCOG/RyLgxISUVZsuJpehfUi2iqLmd9KYpjLddJgw0pp4kgTHQPHNUFlcHvmFSWMOX0Ofw2k/43gpQc7ppW/QsIGyjh5b2C7EadkIZ2TO7H6Un6KbcU0QD1eMKcR9ifpvjl/WfOLkpvS9rER0f/9tQ91lpRZt/e8yCrLy2yOrSLFFvieTfOpdz0tpJmqPSUG/SphWUsKMQY78PsRGH5V8M7koiv1OLHzvjXBXDX1wViWG1TdtrLyiuGWnODrHMnXQzI8tLN1Rt5lMgvAN2sQaJLNAt8DbQCjT41Yuw37Zey9LVogHAtuCWiIBqMnA/8zlAdddjIOyKZgetFJ7yMzvgyaiirJJMt/mqbOW+HlGMJ5TiLtO8CUWureHuia5lJeRVYSvxu8Ix+pMjN/P5Ailvyz3f5cX4XT/7D3F/CbSbYPTlg0rkGUhdTH70RSNZpwUTatV9JR3GxVTFFXFNSZLUouWQLrsHbeBJ/FVcr/h1lpbw0mSp4C2aemupeF7njHyPNWEmpFemRBKyxlvVrE+EUSwpNRMTwi1tscaVWzLwnhqSHWGubTZ+1nw0ZOjIR153khgEavaZ4fg2qM0hRlohu+KBOxR/BZpDMwAoChxpo/BG8lkHN/M4wSLlpADFohU5YnbYsjR+A+hwQQe/SM6Ec9xHzDJB212aWOSi94aprcjx+f4PfRyS7pZzrPr2Mcj0rd470jt5xHYdvgU36HSLjcJe1F2UZh0TtuXO3CvY8mdzF1G7IGhRbTSnHrulJvWuynpImnndDIzXWVFvtsresrZ6ZGRRTrKTYU2BF5eXeMVZKP4iC62hutpZNG6xh2Zu26ZnHbfU9d9l7f7lDF8ez4DzlRhPUpfKUGy9XllKLKze+Acdv75wPw1WWD+MTOWGWf+44GIwpcT3+RL2vAFzQHolu2jt6FHOARIJDcaepIo2yeyJNRLoXeB1XTxLY2uOo0+5ScpdRl4tBT5WLFJum3t8fTfMjW6E8fybOx8BK0NvBhwZBy8EBpPuQ6sq5J9T5IE4uBRr8hMk1xLkxyBP3+3C/DUTN5szG/6ag+PlyQ3X0L5GCk9Wm77vVodT8596a+O29RBnF1NrRZpteesZW/O6XNnLevla+zbZWMmyEFQ8ZyvRjsXWyIaSDN6S0NzR4yq1p9UprXL7Ual9/xRpXvGNjDjzUpp31VRRjO0otrtB09C22EpRZEZdJvz3wu5jf2IyeMu1fjEWWphADGLWh5JtCFlZUvvIPFG4SjfDexvO7YAZITjcwDo6y2pYCTbscA8Ikqq2Hlqkrsaj6JOenPKLCpsvHT0tpRIWVvyYfthA4/DcczsdDU1BzQZCVlhqP1u2Nvj/D8UAQVgddjzA/vAKtarlLFC/qGvQmbS+DlH/pyhnIn9KAQ1/JXQOXUlKXgT2AZg6i0sXbWzGRpaN1LE0H/x1oXStIoq5xIjzleYIfO1AWWUmfB0pPcUPrgF+ySLFpzfVu0vrvZA+dk+5uHG4HUaP3J/H/BQgVpU1aUmKHhwQSd1qPu4KwqkveJarB5T3zoAy0cUSWmxRaLSaV/1C31t68TSUc27CqGlYtt/UP3+/BT0fKjW2OXLEO62zTNQ2WWHuHjLv41KSmJ0EJt3gJ+ktHKbNS8hAS7rLkZOkFJ9lfXTXFUgXCyehdydUpLQWaovBFU2TvgBEARhMi6vT71YRLwAkN/y/cAA/h9W1wNNAGFt14ujl8+rlCnmJTvjcQR1NKulHncAir71sKEyKLcddNrvuBq9xNlHemo/D/EFaYAFTGZFE6Lyc7RJzXdIXVBoPUUbt4kFUhaytQ4GMlHvPh4xyOnwKzgBSd4goS1VODA7WRvwF9yLONOMpT8YeAZC50rcWhOsowkTLQFFRQmZXPkrCIuK8Ay4Dip7abNtwy5Y6gXv5Ka7h+pIjakMqpddxQgQuvDBwfJdCj8PJBjlIO+wG1bfGRzKWudy14EVxOvKc4qk2+wWEmSM1PCiqbOknxXkGcK0jzQo4azO0EVBaVQ+XxRWUXZ7oOyv8Z4p7PMUyOxUPtU+0qmXuFV9q65tokonaRTr5JALUdKTqVIVV0jx1EHYaSngYCeRWWnTrVIYw65JBDbOHChXnNLJPE533kNDvuf6+35iHlVk8bSzzMDc36BE4ba2/NDXW28o5f25tXfC2TJLuHQbMNmTzF5v/lSRsyZryVtHZYKRaaFFl5a6eHsrZOq6Bp+L8rutwr6SO+fcHe9u4K9eF5ESW8a15SLkCitCV/0Tkyt0zD+YkQXptPRgO/81zOzbHA9+8Px0zrlGm4XNeJfA8kTSne8V1pb+L4MDzq2GvJtF5B4YLcggqUabiguL1xS82X3xowSLmMA+rMpbyfh8vIwRthtpDUtLcIkMaB+FIkuq47A39Asp7zxZTnLY45k3RlTeefs4JEJEQZzsP7J6Ca+o/udxZcQ3O9bWissaIRE62eaUP/8zf+9906UFAdba3WXrs5opoRXkrzvRW26rZf2vQzz7XiiuFYbFJwXdYaiq6UcUcpSs478rtEv+VOshWlas9OghigQaWO/oKCeVNAgR4hjqT7QIhXv3HOV91zVUHK92Su0gpKpzf1703coLLk2i21fPz+N3kIvZbUtLNNkPivE0dYmG3cbMOnK2s6/2zzy0V438TORVo5SWPzpvW2ev1Kaygr8dbhkr/OnficDZ/aaanq6dovwxzW6JbecLWtuONGK2pt9ay3hFJD0ZX5Sk7nUnRdyq+MTUczpu1pZWVOyeXkYrtEHAOOAcdAHhnodwquqW6zVW/eYE3spNSzbvpCgL7tJuXmmQey4LQzcoOWX3ou7c1N9trV37SqZ//lWW9SYrLSynhqvHHNqriS8xUb7rLyOltabL+5x9rwSs2UOXEMOAYcA46B/sxAv1NwLY11VoeSa2Ly1FtzY92tg/c/+nNfmMHW0dRozetW54TXl374dStuaoorN6y1cj7x/dK9N1n9mhVW3hbzLDhNX0r5FbW2285T9kLBjclJ3i4Rx4BjwDHgGMgfA/1OwbU21FsjCq6FPUH6tps+otPOrkhv26N4QMG11ddawztLc8LKxiUvWt3SN1Fk8c0mFZiKS/51nz1y5w+sdu1KK+O3lJuUXDFhhpcOs2FDRuYkb5eIY8Ax4BhwDOSPgX6n4LzpRyy0NhRcBw9vN29cb/Vvdu1alPXW0mpNq1b0eooymdL1LzJNyU7JMjaTdNY3WOPmjfbMw7faQ3/9iW1avQzLrcN7hCD+XBxTlTwy4MQx4BhwDDgG+jcD/U7BdWqHZGtL/CvapSW2+eXnbPnN1/LQdp0V8XYSTU1ufDy3O8RbUKJlehSA9be1b75kzUyTShYuuMn+eNelVrdpTXydjg/IVVevsc21eizEiWPAMeAYcAz0Zwb6n4LTQ9r6HA2bSjrb2q2ZDR+1r7/M1v5VvI6Lt5hUb7Sa117KKadDhwxnU0lcwb386N18XBxTrkueee4eW7l8scUoS3lRmT266G6rru3dBhc/bXd0DDgGHAOOgfwx0O8UXFHFECuuHOYtuWmnZO2SxdZeV4sFx7OUKL0YG05iJTl8fI9pz0k7zPF2T7ZurrIlLzzIl3HeV3CivqYGhYaCK4uV2NOL/2F1jT18Bi9/19Gl7BhwDDgGHAMpDPQ7BVc2bqJVTJ7iKbPGle/Y5hefQaHx1QB93gYFl2sZNnqiTZkx1yo6i+2lx/9gm/g23fsvBIjn1sojBXq9VzFTlPrigBPHgGPAMeAY6P8MJBSctt/3Bxm6w442YvZuTE/y9YAVy7wXJGvtzdNuedAtu+5/vA2vGGX1G9bYw/dex4e7/QcS3mdD76qUYhMqh/BSZ73zMj+Shxrmp6AuVceAY8Ax0N8ZSMz1FRfrVcKJl9n2WbmH7byrVc6ayZrbOqt+4el4OaR8ZTnlWAeXVw63A4/9gjXzOZ0//up827Dm7cB6V5QO5U2mTI3iW8Q0Zc4L8n6ueqedE8eAY8Ax4BjIAQMJC66kRO/S7zvRV7ZH73OgjTv4CJOBVPPqC7ZhYfwVhCUoomLW5qTjtAGlgynD3krlyHE2/6NftG0mzbBFD91qLy/SZ7CCZQTPvXkKjvybWxsoR16o0gDD7V4JvgTO1THgGHAMZM1AwoIbOXKkdk702Ss6xn3oKNv5Oz+xYbvsZI2r1tuGxxZYw9tv2ZAp023yaZ+3EbvNs07e8N9asxl/rZP1XEr4svcJF9xge+x3nJXUsb6m6UcUrN5RGSQjK8dacazY2tparLa+yjryo+CU+XtB+Ts3x4BjwDHgGMiegYSC22677ZYRvc8U3LCd51jpmHFMTaLcHv2HreGr29pNuf3pZ9v2Z3yaXZQd1lZbbdXPP2VtfM27x8J05/Bxk2y7mfOsZvVyq2jptNZGZgZlPwXI/DlH2+Rx06yspNxWbVhqVXU9f8lzQPLJTjJLX0l2cOeOAceAY8Ax0HMGEgpu9uzZb5LMnj1PqjcxY7bq97+xdQ/+jdeXdPKlgA3WWrXJRu21P5hvDctWeNOTm59/2lb+NvKjsukLgbVWs3613XzRkV5eWldrrN8cOO04ZuREO/2oC9l40m4balbbEy/fb/VNeXtEQN/l6vefhUlPsAvhGHAMOAb6CQN8IK4KSPShOD0AJlumX4AvdHfGSst4CST7GIu0l7Gw5SopLutkxyRf8SzqLOKY5/z/TvpOHAOOAceAY6CHDEiPedos/iHvxCfX/eTu8U/6w1EbSjp5bZfxDBpmVMGL1NbeQtZsamHNTVZcHqWZtBflMX2XtGPAMeAYGHQMJHZRdtX8MxxlqTgpLAOaHr60sFm63BwDjgHHwMBmIFXB1VDdRwd2lftd7bS55O5+VypXIMeAY8AxsJUzkKrgVJ3jQPeXMW7lleznxX+S8l3Vz8voiucYcAw4BrY6BoIUnN6mcTNwU5X5v5x67u1yUPgFxvzXzeXgGHAMOAb6lIEgBacCnQ0e6dOSDfzM9dG574DHB35VXQ0dA44Bx0DhGQhTcCrJ4WBV4Ys0KHKUdfxb8MtBUVtXSceAY8Ax0AcMRCk4FWcGcJ+vzu2F0frmz8CXc5usS80x4BhwDDgGkhlIp+D0fNZ48CBwa3LJzPXsXLtUPwf0UL0Tx4BjwDHgGMgjA+kUnJ8177XyNkM0+A7umDUDy4lxMrg165gugmPAMeAYcAxkzUCmCk4JfxvsAfSRNmfNQUKGUkU4bdqZChYAJ44Bx4BjwDFQAAayUXAqzltgPpgJpOh6/2E2Ehmgog06p4Ex4FcDtI6uWo4Bx4BjoN8ywKfQOmVhjAKPgb9mW9Lbb799j0WLFu25du3abevr6yubmprK2tvblW62SW2V4Yv4jhzorKysbBo/fvzqqVOnLjvhhBOemjNnTt6+q7NVEuUK7RhwDDgG8s/ACWRxMKiOxWKjkxVc/rN2OTgGHAOOAceAY6AADKDgYiXkcxm4GujBYyeOAceAY8Ax4BjY2hmQXrP/D7ZOUIBn07OlAAAAAElFTkSuQmCC;snapToPoint=0;fixDash=1;enumerate=0;sketch=0;" parent="1" vertex="1">
          <mxGeometry x="-43" y="783" width="233.17" height="54.05" as="geometry" />
        </mxCell>
        <mxCell id="vl4gCE95MVzYSTKUqyQD-46" value="Streamlit" style="shape=image;verticalLabelPosition=bottom;labelBackgroundColor=none;verticalAlign=top;aspect=fixed;imageAspect=0;image=data:image/png,iVBORw0KGgoAAAANSUhEUgAAAL4AAABACAYAAACk7M30AAAAAXNSR0IArs4c6QAAAIRlWElmTU0AKgAAAAgABQESAAMAAAABAAEAAAEaAAUAAAABAAAASgEbAAUAAAABAAAAUgEoAAMAAAABAAIAAIdpAAQAAAABAAAAWgAAAAAAAACQAAAAAQAAAJAAAAABAAOgAQADAAAAAQABAACgAgAEAAAAAQAAAL6gAwAEAAAAAQAAAEAAAAAAy3VeKAAAAAlwSFlzAAAWJQAAFiUBSVIk8AAACZ5JREFUeAHtnGtsFNcVx8+dmZ31IzZ+AAZjsIMhoXUpbRcwEKDGikEJAkWtjPohTaV8oJWq5EufUZtq+dBStUJK1KpV+VBVFVLVuKWoJAUriuSkAREIoVQ1TdQqDSECY+KsZSPL6925t/+z7K6xPevdlR+yPOdK47lzX3Pnd889c+6ZuyaSIASEgBAQAkJACAgBISAEhIAQEAJCQAgIASEgBISAEBACQkAICAEhIASEgBAQAkJACAgBISAEhIAQEAJCQAgIASEgBISAEBACQkAICAEhIASEgBAQAkJACAgBISAEhIAQEAKBI6AC98QL4IGjRNYX29qsiuFh9f7atfpQV5e3ALoVqC44gXraBfKwe3Z3NBOpHSOVtfV1sdhZdOvKAulaYLphBeZJF8iDRqNkkW12kdLHjDI/UJp29nZ2uguke4Hphgj+PA91+xvtn/NIb9PG1Hpal3vadNwZGNw/z90I/O3swBOYJwAGtg0WVFZTU/NRQ+oJXJfyrS1LPWgpWvJU45qT+7dsMV3XriFLwlwTEI3vQ9gcPFhnOjtnVSl0b99XvWt3exsZ2ogJUJO5rdbG9TQ1K8v5atXgYF0mfbbO0da2htlqazG1I4LvP5oXKB6/a/bv/56JREL+RYpLLStNNLm2fcxT1AwzJ1uZY4ZMk61UtFzrxmzGDCPRzbu+cmTrztsWeTee27q1dobNLbrq4tXxG1LP+xMMk2/j+CnV13/DrFz5Q3Kcc5gMt9SZM3G/KtOlRWHRaLIeMUZvgqBPdSEbKoGtv1Ib9aW3I5G3N1++nJiuPb+8w5igjVS2NEl6A9n2z7COiECrKdzvb0cvXhzwqxPkNBF8v9FX6iSE/pukdSkZ0wRD/ATi3RQKvQQz6CwNDfVTTw+UN5R1AWH3nn2fIqOf1WSmCj3qcyOeMcpR6umRyuoLuPxzAc1yEdXZ2Wm1fPTREkpajyaU+bIi6xCEHt02pJXid8sfCmwrUMV8ByJQBHwe1uzdW07h8BVIz3ocmRJxTICbuHgHxwkcVymZvJnvDcCuyv47g/+FeDfkEvzMDXgwQpaVdNzE+u1nez7IpPudoy0tLrlVS5VLD2uipzBvWtHXRvS2jMtzW45lDcRtL/Lj8+ev+7UR5DQR/ByjD/v+R9DwRyDckNms8HMkjrfBMNK6cD6LN8ElamgYUMeP+5onPXs6XnQUPRvXEM8CAmx9NKvO3L5984lDvb1jk6tE29ocGqYqssc+S8bqwDvkSW2oGp1kL1FqzcaDals2uqZfPnLpzQOT25DrNCgB4UPAtn9DnjdZ8FimSiD0yyCdX0f8KN4C36e+vp3m8cdXYFZMUCRv7Gr/giLzdKFCz72AyYO/Zt/S5SunCOxPsEj1RpMRYyWeMcb6Od4g38JCeRXKl6PSuKMCkwdmE2EfxIvcpoSpBCYM1NTsYKeYAwd+BwJfg+r0BwHhQuB9Nu9iMpzCJHhZnT7NNnoqvN7+6DtYXX4+Mf7GyGRNe05pfaLB267dfKi7+xMu/PzWnZtsUvuwXD2I5loxPRy24/0C18cU/Hf0rTc/7ZcvafdrCaExlYBl/RqJk7X+eDkWPGNsHC1IfAbnX6ZMJFy81tbxi7CyixZ6bpy1PjR2Vd2Yd5Kvn9+y40nL0AvQ7t+BWfMIzjmFnsunXjyaXrgXl79+BETj+1FJp0GIq6HF/54S7BzadVJ1DyaQjekw8F58rOJWUrsQ0on2z6QKuS55YGDrJ6/FEwN9Sa8OfeA1RN5vClzPtlS/UcnW6IULH+BSgg+BcbvQJzPoSeqVV2IQuG4IP6PwtysmQmLtD2vE1G5wQ+72UpeWOkhCmWJBcx2YMk5zyKmz0Sbq5xV6rmLBzIGH5woND7MHSkIOAsWOR45mFnFyIvHb9NPBvVNcKIEQbgqHaFtZmOowAUK4LgY4C38JVPjGkjCFsaEnb1BKw4UJ8fdORH08QnnrB6hAMeMQICzjj6q6u3uxuH0NKSPjqcXFyiHwTa5DD2MSVNs2ubguNPDKudpWVK6wmzlfNWPGxoyO0ciqlwptP6jlRPALGXnPO4ZiwzgKMXd8WyyFsC+zLXoo7KQmQSXi7HLMJ8vcGN90VcimGkyaPB24iwK/ivZ25V6Q+/YueIki+IWMueO8Djt/EEWLNnfub56FnCdAPcyez0D7N+BcAROmkG2gNZgoVThyDRja1nBjDsU9On7/PSXuTyAXR//SQU09fXoUK8b34WaJzQYChs72/1qYP+tdTABo8wfyTADW9JUo0xByfE0eNDeKWTFQOhrrm40+LvY2ZJNaASPM2tRo/UcIfiWKLy+gSsFFlkCLl2NBuszW1O95dD3BVv2kT8Dp1h5AOQf7H/qTqW1oE8weTIwb8Oeck0VtGlaek2j8PICy2SMjf0X8GoQ/j5mdrVFwBLJMbPOvgTbfUebSCphAfoFNpRD+rEm/ITJlOB3HVXz5+n0mTc7TExDBn55PNlf19NzFPvc7EHzfzWjZgjOIsLenFN6bFtj/raVhmDYWNhhPDLwdYYXjpN4SmRx86NJwlF6PXjr/j0yanKcnIII/PZ+JuZ73P9j6/5qYODdX5bDnN+MDGE+AMsTDEHgeLNbu7NascSx4eTLDZwY16Ttz05PF2WqG3OJ8utl+Kte9CI1f6I9EZuXu7PXZBuFn84a9OvwRjEMt3gYZkwjfivGdwfrnrNwwII2I4Bcz0B9+iB+U0Dm4NscwAe6tQoupP4Oy7M1ZBy9QIyYArwfCEHwsis1yx9FYcf/F8uzLM2g+cFXFq1PEkCv8Fha/vx2E0L+Lak042MszL4H1PHt1ynBUYxvcx/AAlVoqjmuYOe5/9va8+vG8dGSR3EQ0frEDmUjcwBaG76Iaf9S6hWMEEwG7yICSj7kK6fZ5E1qFbY2udp1PNoRDb8G3/1ylrW/M1W0Xa7v3DMbF+nRz8FzwZSrCD7xpZOQheHlWYLFbCcGvwJn/V04Fjo2I1+Ncg3MVJkMJ8rHvwPDCmOO8y5L9lRn27B5lsymBvDjKPIgDuan4ENJjiPNOy6s4hjDpYrgv//TxLtL7KJF4j1pbEyoanewAQnEJuQhk4OfKl/Q8BFIT4fBhh2IxB0IYVqdO8daGbEC+RZGITatXt9AYttC46X+TqeGB5AA7PVuY08LhXmppSVI0yv+SIZuX/m1AnEpKkpwvgp6lJhEhIASEgBAQAkJACAgBISAEhIAQEAJCQAgIASEgBISAEBACQkAICAEhIASEgBAQAkJACOQisG7dY2HkyRaZXIAkXQjMB4H/A+Z1qBRH79t1AAAAAElFTkSuQmCC;fontColor=#FF6666;snapToPoint=0;fixDash=1;enumerate=0;sketch=0;" parent="1" vertex="1">
          <mxGeometry x="-230" y="339" width="287" height="96.68" as="geometry" />
        </mxCell>
        <mxCell id="vl4gCE95MVzYSTKUqyQD-47" value="" style="shape=image;verticalLabelPosition=bottom;labelBackgroundColor=default;verticalAlign=top;aspect=fixed;imageAspect=0;image=data:image/png,iVBORw0KGgoAAAANSUhEUgAAAMQAAAC8CAYAAAAn1wHHAAAAAXNSR0IArs4c6QAAAIRlWElmTU0AKgAAAAgABQESAAMAAAABAAEAAAEaAAUAAAABAAAASgEbAAUAAAABAAAAUgEoAAMAAAABAAIAAIdpAAQAAAABAAAAWgAAAAAAAACQAAAAAQAAAJAAAAABAAOgAQADAAAAAQABAACgAgAEAAAAAQAAAMSgAwAEAAAAAQAAALwAAAAAECnyXgAAAAlwSFlzAAAWJQAAFiUBSVIk8AAAKRVJREFUeAHtfQmUHVd55q296i29qbu1WpJBtomFF46MDR44LCEJy2QCIVIODIclJFHMTDBwwiQzyYRm5pwQJjDJhGEGM5NhjQExQGA0GDMOxjZgByMYLxK2JWuzrG71+l6/pfaq+b77WqbVkW1JFoOa/q/99KrqVd2q/ur/77/e/yolTRAQBAQBQUAQEAQEAUFAEBAEBAFBQBAQBAQBQUAQEAQEAUFAEBAEBAFBQBAQBAQBQUAQEAQEAUFAEBAEBAFBQBAQBAQBQUAQEAQEAUFAEBAEBAFBQBAQBAQBQUAQEAQEAUFAEBAEBIGfXwSMn98/7ez/sh/cdJPjXNl/hVEWGw2zc/cVL/idE2ffi1yxnBEwl/PDn89n37Vrl3XNzp1pHnc8xzF/q1ZZ/cbO1J1ry7KUQeN8An2B9yUvGy/o9ttvt9d541syp+wzDP8xx1GvrlcHf891g3t9V33qRBjdd/HFL4su8Hcpj3ceEBAJsQBiYiYbLdMZq1Ur7x2oD0+VpTru+vZbbLf60RG/7w3N5t6h84C3dHGBIyASYuEF3Xffp6vVuPLGymDfjZVKrV4WZVyqcm2t2lcrlRpP8+xDaTv+cphEbZVkI3Pm3GNbt+5oX+DvVx7vLBEQhlgEWFnuso48WHllUK+9q6/Sd31e5pUszZVfqaiyKB5rtRpfyYrOuGk4z07S6OP33Bf9cMeOHfmiLmRzmSMgDHGaF3jo+7vWeEMjb3cd862GkV+slGV5XlWlSdTMs1ael1GZxcnfJkl8s5rN77v4ZW8T++I0OC7HQ8IQT/LW9u/5yg4v8P4k8L3Li1JZpmnhTAuskSplpIWhskYcdfeHUXbz1HS069qXvW3iSbqSw8sIATGqT/OyfvTdXVf39a3aPjgwurleX2VV/LrKslQlcVfFca5Mwzc9r28oqAxcZ1n2zopXXvX1r/+1d5qu5NAyQ8BeZs/7U33cu/73py7dsHnknw/Wh15Xq9a3mNVaYChT2XFbxWmkWmFD2Q4lhQ8p4SjTNJXrppf5Qf7yobi9Fz88jg9scGnLFYEVrzLBvWr8w9//1Wjgj75ydGTtbxuG9byDR45WTkzOGKvXjqpLtmxR9WpVFXmsQjiYDNC7H/jKthyV5xkkRqRmZ2ce6Ha6fzxfTtx2/fXvCZcrMchzK7ViJQQi0NZ3d398/Q+/E/zq8NDgbw6PrL6qWqnW7/jO94z//N8/p2Zmu2rj2kH11je/Tl13zTZVgacJgTrQTKbyIofXCZwE6WEAQsf2tlpW/JKRov4jnHBMCGv5IrAibYhdu27qv/97N29ffdGGT65fe/FfrF238cWeX+3LitIoDVs1G111/PFxtW79erVh42aFsASMaahIBuQDFCK4YCEdcpXliFSAMVzXM13bvrKb2RuYD7V8yUGefMVJiLGxd9Smjx64sVpufsellw2v9v2aJvIkofeoUJc/Z4t6741vU45fVduueZ4a7O9TqsiUgnpUgBsKSAds4pvbBRQoyAl4oCzH32h7arTv0nkaGehM2nJEYMUxxOF9h15xXzf89auvCIfXbVivRkcw5BsliJrmlKkG+uvqV175S8qsVEHWoOskBsOA8KkmlWAGSIWMzMEPjrEZBgStUfY7dl6bH7LIENKWKQIrTmU6Ojm9Zf269aPbtl1lOcjiO3TkmJqabYDAc+W5LgzmClQj0HQXtjE8S9ppZEIaYCvPC7hfoSplmUrhhuUnjkLwDc7Lc1uludtqpSsO02VK+6d97BUnIZ53xeXldddcDS0oVXfcdbdqzrfUpc/erK64/FI1OrpaVeFRMmE4gyu0KkVGoTcpimOVxiB+MAP3ebyA5KD+ZNomtiEtwEfDp4VZDi4XBFYcQ3S66V3fuO2ODZZZvnx01cDmVUP98ez0xNwPfzTf19dXHx5eNWjXYETbjot3WILeIQ2gOqUpVSeErG1HOY4NpoGWhH8YiwhgPBR5kkVJnJYdh8JE2jJFYMUxxMf+5uY9W7ZsOfTyFz/7M75tbDSMIk6LaLrdiOvtdmPL7OzE8z3fu97zvGfDqvDoVSJj2GAEHFNBANui9JQJjrIxd8gyDKOkKqVSD1KnGuWh2BDLlBn42CuOIfA35wcOHJjiB9s/JAgn2003/e5d85n9rb5I3QgqXwNe8EDvcLki1gCJ4Xu+8n1fuZ5TWppJTEgMqlZwvyZpH1So1TncTehv/mSf8r28EBADcNH72rnz4+lqu98GwW8yHbfiumSAiqpDhervrylMHlKVwIOkcAzPsw3bhtYEMcIAHX2vRV5USiNbiYPMIhSX96a8vCXvz6jmbd8IjgR+0IV08G1QfaUagBFq8EI5UJ0spG0gQg0DoijhlmWgDj4oC8c9x7VgTtB/y49WtpZ0L7sXOALCEEteUBzaqRuUIaRE4Xsu1CPYDVCVPEgKRKTBCIxOwwsFrxIUJrBCoSUE0sGZ0mElnUKk7hJMl9OuMMSSt1WxrVHYylc7llmniuQHAeyHXmarhXG/hE0B9QihalwI24FeJtoQzGoqLdNKsxJRi56IWNK17C4DBIQhlrwkA5PjHNfx8TF9z9GGtAWDGklOOBPSAdTOVA2DTAGfBDI44JpNEIvIlVWWZmKCbYQjlqC6fHZFvC95V5mZ2qB607IsGM1wr8JqtixXxx8YeLCgMln4Nk23xxjkEPxvmDbymWzOlJC2jBEQhljy8hzTpKvVByMYKDKAqDRymPJe4p+NNCUTLliazAYZgYoSGIT6U5lnBTajof5KSq1K2vJEQBhi0XsDjRtF6VZt2wxgG0D5oSSAjcAkPupGNJ+RHo6jYARuY8tikM5FpJr6lDEflV1muvJkacsQAbEhFr20b397DCIgrbtuxbMhIQwG5DAPgvaCths0I2AMwT4zXZn6DW7RjGE7tpmVdtVqVmQ+xCJMl9umSIhFb+yOOxQm+mCqD0QEE/Z0RjikgMHJQTCgKRX04E9RgoxYWs8MysHgoCpl2LAjykG3J0oW9SubywcBYYhF7+raoSGYBKYPlytSlZCSBGagmsT/aC9wnwzQU5e4S2bo7WMvs1yrY6lQVKZFmC63TVGZFr2x3Ju1fMcLkLuk6zCRHWAYwOkEGwIMclJtYmRaz6mGulSU2UmWieB9bdqGQYa44NreXWNu/6VXbo6N+CLUkpoerXmPjm7d0cGDir2z6G0JQywCo7C7yEfyAmhDsCBgTGtmYAQOMHHWHKUDvxGp5mQhHZ0DOeXYL4s0QSpHu8+rIox94bTysV3BI5PJK82y+I3Zzux13W40iFl/32vPmh/cv//r915yyavjC+dpf/ZPIgyx6B3E2ZDpGoVX5Iw2g9LxP1UkfnMCkJmBSaAiIQoHd1SKY5gvgf/oYoLPtaAVcaCpaETQ2sDXz7btv+ezfQemw3+JPMR3JEm2Fhm8ZhX1/SEAX4F5HauNVvNrB+/9zBcvNroHjWt2XpCS7f83gsIQixHPIriO3HnMhks4x4EmM2fFmZAABuZDsJEJtG2tc5pwDs5LMc8a7tpaaZU3rHKLjT++8/NffcgM9lurnURftP+A/ko2MaP8J+1ytVUdcI/QQFFbtlyi9ux+yNrw/DljtbpKPdw4bI40HKMx0jYG8fscPvxudVKzG2am4xtWklYtL8gdTHqy61lSGP19MVS2xMNP807FLBrjb4OwuyGKs/VpwiIJtIS03PPhB3i+a6vn56bxmsOp/+eofn7bVVe9mSrUim76ZaxoBE79481bvvBnrxzor3xg1fDwcwO/YrIgmcU8byCFrA6wCI1t2A6suAEKS8EsrMDhO8h5wnzsKIqKJA7vLYvkdjBPwzbzMoNxgcyPAlXDc7u0CqTNgjQtw0E0HOfgALqGGwvlMgPLtP2yMNzCyFEJrXBgozgmLH0ECHlXxgO9Ms/rcPvWodYh3dwI8AB4qKIwbadlm9Yk1LejIP28G3Vf22p31nU7EZghR/2onqeMswCZnctcrVoFsXVTfRHX/Jst2367x7mnYrKi9kRCLHrdHx0bqxRFssUwqkNI2DNBfL1kPtgTiFyDBgsICkIGwjJhN4BybQfzI+xeagfHXiQDmpVKcB0m1F1XpKHKkCIOIYOOkBULrxQLm5lMCcEQDR7BcdwEwT7GNkjtrOjBBj7Bh8yGfapktF1wvp7LzRgIzsvAlLy+l2YFjsX/ZGDH8nE41VH2HBVns6xUqCxYRnmSDtRrVtBfsbpholrtLvtIKr6XOdD8pHFskPYEApX+hp0kRT8KltkFRlFNjCQ4kKoyMKojUMeSNDpAYdgGo9Q2otR6bgTOAttgFMYH5xmo/apMDt6IYmMAz0sXA74Ni4MlMEmkhUqgULEcVAqa5zoUKaeicpsfXcSACg6uKZlEiO0cTIK++CnIlLT+tfcLeVSUXnQELKhwWWYp1w/U4GC/ugjldtasGYUfwHhoanru891uendfrdKp1nxKNBeG9vVhab3woe/8Tf0JMFbohkiIRS8+qXSTQtVniiwHeVIJoc0AY5pVNhiEgO8JXKFy1mvigAyiZ3oHVSqO+FB3dG+aaXjcMZQLktZ1nUC82ORF6Abn0QYxcQMewhBv6NxybOsu0DnuqK/DNbgtrqXEYBeQFng4SgCmnRuUIroTRkto5/A6MAbcAgbOpSRh18NDQ5BcFXtuprn70OFDh9dvWP3OvnrlNbmT9UVxugnJjG9ErsoDZTl2v2GM9R6M/a6wJgyx6IVn49D4N+ROAi9TiqE7tRPMkINUMDExFAl+JlaFULpGE0ZmECM0H+VgApEDfZxNz60m1ZIJSLXQ+skklDEkT/KUDvJpxsBpyJglAWudp/ezljI4yM5610Ei9SQVe2WjMUJ1zcE9eASSApxLntH3pf4EhiDDkYkKSJA8TSCdUjPw7MutkYEP+pVL//2Djzz6iTVx39pqpXJ9AZfx3Hx7s++Zz9qze+0j6KjL3lZiE4ZY8tazMjNgK4CAQE8gtBwfkBzOwpw4Zr1Cn7HtQLm1AcyV6KWHk1LJDGy0C0j8PQLlpCHSJo6dHHPxA/gCxzDi626RK0XS19dz6Me5OIESh0xB6aGZiR3oDyVGT3XrSRiyGM7hNbBDKBF6gUSocrySjMmWgrEg7YIg2Ih7/cG61WtubjZmItg1zM49lKflp5IyfSCqjfc8Y72rVty/whCLXvmUGk36su5UgsaSlYaJURi/Z6jJVGC0L1G1j5OmqyhF46P2q8VkJ03AIFaO1hyVSe0gPJAttnu/cxvlbrD/k5uRbcgR+jgO6zwpEj+uoS3Ck/Xl2OYcDHqyeIAqmyZy3NswoJBROpDpNHPxHw994BjO04zBPiFRlA1vEp6LC7+4nn/ZmuFVv9dtt6wwir3A97uubd3+4l/9g0fRw0nW/cnDrqAtIi9tAYGxsTHYt+bjYZI0Ua6y0F4cEDhpMdMjrIERth+fmi400LsMoztJCKOzpkwSMylUs5LmEBAmyEwfwzdGfQT+QHYgUpzD0R0/Lnw4Ew/XamLnIZ6Pzik9tBeKN8IHxw1ICZ7LCUw0pvWH/eH2TEuntdP7vWdwc5ITPVAnn9H3nbW1WmUEp9mwSx6rVKwm7sYbrOgmDHHq6y8TMzyIgmP3JnHcYrW+DAY04wis3seSS0EFpfERpNOGMwoLMFCnJcPCqE4ixwH8DysDwzqLImvjmK5ScIJWjUjoekhfsC00QywQPYmZ++xX2wakcLpodZ+9vvEbXbK9YgcgfDANfzdgk+gsXDDfSSZBIAVMwxR2XI9zyCxUA1lrqlat4nRdLcS2bFdoAQgJCABhcdu58z8dM3LzligOp1CZEsyAVYJCBLZA2ChNA2aAoUriJlHqAfvkoEoiBXuUIHqmdTCQVuQaX6oumilwI17LoN5JiXGSQTia9xiBT/MTRiFfUNXRRjoJn5KGxK0lB1UznEvphKZJnv880fTFuIY9L+hVukNeXqB4gtWF2jcH9W08twzJaQJuYkM8QTxPbBRJlo6nRd6MUarVNLsYgFPV1zegUHsAJ3GxFChWmgg1CYO6yAwgThAj1lzRJMmEP+pavUpm0OM1E4E2cZIe3fWovjAeUaVC6zEHuwEh83/SM6QQvUn8jwd7ATf0i20dd6DqxFuyD82huB7Mxb56DMYzQetUuRC/oF3EKAYZwnP9fGhg8GNZHH+m9NU477bSmzDE6SggU8fSuDwAtekyqE81VOlTHsvkI78ih2FtIn5QaPeRTv3TPWhiLqC5gzG0GkV1HASaayFBAsQoj2OYeQSiRKANbiwyFXX9HuFTauB/GgGaEdgtN2DD4BxKlZ5kAuNRKFGiUFpoSYELF/rtMQ7pH54oSiMwlL4ATA2vQO/DvnB/5It4/f2Dj1bs/DGkguMEaQtDlACxGIE3vfM/HCuy5H+F3c5R6Nu5LlAGwkszqE4LuUuaWDXx0zXLYgQgPf4G12wOTw5VLGQx4Xxco6+j2tQrWZNjnwE2qlG6gZ41N9B6p6TBiWQe/k6VDZXFsW5LR3U6WA0V4W0WP6ALlaM8VS8uA8bn4TUnmaonkSAZikR7pZg2QltHq3NkDDBKloRJGjXU7FxLPwGfYqU3kRBPQgFQdb4PSnsQU0k3IRJd5ejMAFcGAnQdaFGQBlo5Okm8IEckLvXcsyBkLTHwrYNquAfJtadg9WhPq0FaGICIQbRaewXBogOcSWLHv/iQwdhHGHZVozGnApTVrNf6SPcgf4zy+BjIXeqpTbQx+ErRJ4heb+NEnnfSAIfoWPAO48qybGMBmMbc8TY5RBoQEAnxJGTw4BH7UVTT+CLoaT+IO6OKkdDrlETaS4NhV4/GIOHeSI/fISv0yM0Rnkl4DORpI5rSAp6qDCsN5RnWmViQMhz5tRdKqzCIdXCf0mVBPULenVa/EkiJuca0mp6ZUu1WC9eT4MFiuAci0NiPNYNAF8PT9H7r/Vk4h8egPmmWxLnaeAdT875JnDW6WT7nzl1Yk5p6z/6z+VcY4klwR0yisNJkT5pnR3IkL2VMfwCxYouLpyA2hlEcTID8VNAg3a899yooDeoTCb8LiQIG0i5bLrvVAUOE+I1ZqFSp8E21B4StPU56ZEdXVLPAABlVMHwjlVx12vNYC3tStfFNycBrtHqkn71nQFNd01IH3fU8WjgHz8Ln0d8UZ4hDUAiRkzFhSMVZet98a3Zy9/g4TpRGBERlego6aE5XJ3y7c9SznRilLQMjwciq85ks+JJMw8WadJjQAMLmaM1kO0gJMglTr8E8PaOWhEnGoVcIcBuQHEghtMBILgJ8NMIxHwmeVOY8cRynTQI2I/NhwccwbKv5+Tl8w+4gs7AvMh/vQ6OaBjqOGVS7TBZg7vWDE3p/mWYe2iU4lxIMDAL7CPZIs+i05n+UJ+3xsbEPQKxIIwIiIZ6CDna85z1h1Invw1JZkynWGWKgLo67Wp9HnILqU6knCFElwgjNLFgSN4r4LRD2gt1BVUiP1ClG/K6an5tVnW5H5VS/yDiUCDC0qWKl8GJFYUdF3ZY+N8Kijm0sAMnkcter4GmpJkEqQRXSkkIzItiNhA+OYooH85nImJr4yTxgmDyHSgaVLYOkgiWN+8edKEwmZzNP4g+LaEAkxCIwTrc58fjU3QgAH/VdZzPWhnA5KGdFW8cmyjwwXFQGpweHxEh9JoNKVUCn51jDMpj0TLHRRcoocafdVI35jurrH0aJfUgYDEkF5jJQMiDtnOoYJAMYBf0x45aMw2+qbIwu06VL6UA1i2U1dcyCzAY3LK8xwAyUQjhR31dLKUgL2gxklhzxCu0yttzvRKW7d2QEokfaEwhQjkp7CgRqI8+a3Tjqb4Cn6bmIQ9QQaID9AMICgeFf6OQkPKoxvcQ5Hu8ZxVRxcBz7WYJsavzOuEM3wlK+UJlszLIjM2kmosENZkhgcFO6ZLguxqqnCRgj7HY1U2DGG+6ndIYtMlb1WhWsHaWDc3wC9K9r0PKbf0/PWAAj9LxUZCQ+WxpHamZmspybm/vszMzcba/d/mctni6th4AwxNNQwr59+8qXbLv6YOnkPqjrUgzpVUoEBuioktDd2auAz5GbtgO8SGQQ/gtC5/fJqDbjFVGSQ+VCbIA5RFiAhVKDZ1MqMMYQx8ibAjOEURuz2aCWgflYICCilMDHwyIuQUBmwrRVVgDB/TVTgAt6QUEyBHrUKhq2oS5xWio/VNFCqHqN+fb9zfnos+Ot6OFbb71HXK6LaEAYYhEYT7Z5610/aL38BVcegSpyGQh8Hbw5XpzmRgRtA2keIE7MmIO6pAkShMi4gdbjMdJrnQgdk2jJSGEUwVvU1vsOpIS2CcBctE1iEKv+htrEudf0MjGpMMEn7MCuiBK96GO1VoOE6DEE+32iUVpBQuj708AnU1Bi4DBtG3quMI8673Siz7a6rb/73X/xYRbzkLYIAWGIRWA81eY3bt8z+0uv2LbHxdqKUMMvAZXVwjBWzWYHhAcViMmiGK21ZMC+dqdSZdIEyZGaU7I5r9qEJKBaBSsDTERVJqVkgO0RQ52hNOB8akzJwAdSgQmGmsmQkQRm4hoUej4GJidZuv4sGQJ3JfPhPG3cQxr01DbaJbgezEAJxPs0m63jUL++0IDL9Wtf++6Kngx0uvctDHE6VJ7k2NdvvXf2jf/0JXtRyygAIa9GOZd6EiecZIMR20Y2LG0CMAWDZSB05ttpdYkGLoiVvyEJVnVwPkd+2g80dGO4VzUDgPi5TcIlY1mIG2hjW+tmVpag+gE61ysbuS4j5ihygOzbnoeJEoHeKgb46MrtSYreds/TRAnRDcN/QCGFLzfDE0d3794DLpK2GAFhiMVonMH2rt13tX/tN676vpO4jxiW2cEobjTbHWhNlo8SL70yNSAzPWsN6oxO2KCkYBUOzHVGhA9xBZR/gTqEif04BmOXej4YRBM2niGFjxT8M4lgxyHM3Lsf596eptGdzWa7H3bIEOZBW5y+6oAJ9QIufG5KB7hY0ZmWEj11ifcFo2gGYaSd6lf+zbl2cutb3v6h2TP4c1fcKeJ2PYdX/qY3fYQLs3/tBz+46ZYjDz26emKmfXG7FfxmlKa/7vn+GkwgwsxQZrKSTuHlQVBM6/o4oCUGGKTTgSTI8hkUV56Aad5FsG2+zI1xVMM86JnOvjhJD7bK7sQaa93cHQeiLoNnH/jTt6C0mXFRJfAHgsBHXwwUFtrzhBk+T0gKiiYqbwzwQaJgi3xCY74L4RMeC+ycniUelrYEAWGIJYCcze41vXqox3DNsc//tz9OsbbEVniNVoENuACdJlBO3eSSvVSPaNz2pEShJqdmwCzFvX0DAx9bVa8dSm0rDNK81XFrzX+24z2MDfwjgsXkpIfg3WrNzTUH+vv6tcpEBmMSeomyUdqwJ9PB+4QVgvEIVJ1oX9Cgx3E+SGnERukthLHP5q9dGecKQ5yn97zuouEjWGrlBOY3IOcVNZPBADq7FSMzay5pZsARxgtSzM9OoTJ1Ot1gfGbq4Af/8qsPnMljpIV5j1lmx8JutH6+1TarKEVJW0PbLTnmTKMOFNS4XvoBHkDXe2J2DlJJOPcaxQVs1MhEFLC7yDV1JndeOecIMOfpXVeOVKYNqzwIY7bLtAmEAqDOUK+nh2nhJuAK7VGi0Qx1BqS7qS+obRgb2+4imfBp30V6OHsEDPD38CjNoKnZRhNpHjGi3x3VQkS7Qzcw4xhMB0H/J29L1YqRcywzbFcc82LL8gdhr4BlpS1F4GlfwtILZP/0CFyzE+Xk0+J+eI0gJbCAKUUEiLCXZgGYkbxHz0+sDVt6mLQ9sdq0nIv9UAXve9/YP1KRlt5p7JOfjEzH2gW+ehjSJZuaRDo44hMhAnmdbgQPEj/It4LrlinjOhEREoSuXWpg8EgZXuD+gl/1Nx+45SMMgkhbgoAwxBJAnsluWuYnMCq3QIDarNXBOBi7VJ5oXOvAWAujOYoMkzlQESOAWTwQZbbz/vePndGIHRWbH4bd8D9QUfBopxNCSjQQv0hYo1W1Wm2qYarb5T4+dOHCfEE9HSQeIrUEH1R5uhRrhl3WDvLgmfytP6/XCkOcxzcLin4UxA8ju0gYX6DKRI8P0yi0dICqNA+GIAGzsTy94zmrVo2ucs9EQvAaqFZJGXtf9hz3bx3XnJidmcVciQaInfMnkBqCGEcYhjrVA/EGSCSoUOBSJvVxHQssIDniue7zc1VZU56BmsZ7rqQmDHE+3/bx8QmMxseRf4TKf0z2Q6AMKhKj0tjVhMogHhawQwkYlK1H1BlqzGiZJAE0qKdVmU4+6h998ONNv6L+K+IYXwBTTc0gnXx6bo4xBqhLiU4PQUVvMB7T1SEpoEppxtBSghHw8BLfyNbecu0QgiPSFiMgDLEYjWe4vXXHGCaipZNQTbpM12YyHuc3MCUjgtHbajG5Dol9ZAgWEGNynrIGoc+gbPLZtZ3v/vh4NbE+bNj2/4Sd0pg8MaEef3wcKhPSxcGEKe5PaYGcK8QgoDJBbWIkm5ILrDccZUb/wADWCJN2CgICyClwPPOdsB0dwvyFeagvJV2rKXR75iCFOi2D7k/URQJDaKMakWzHd4YrQ6vJEGdkQyx+wt/6k//yGObufQTLAX8f6elJC8xwYnJWNedbWn1iunei7QhOUGJeFW8BhoAPFstbnPX9Ft/753VbGOI8v9m4Ex5FXlIL7k9MUENuEtQWukaRUIcMj3ACo3nCBFWmfdsOy0g6A3AD1cfGXnpOaTRT4ejDiDh8AwwxgXwqaF+JwqIoanp2Lg2jJETaBkwZ6GwsinAy0TAvujiIRxs8YzXtPMN0wXYnDHGeXw3WczuAKaKPt5tzabvVUF14lDpIuY5a3W/GWfxuFBi4B87YlAM0g2VIuag5djI4NHTFOTEEjOwiiZJvIU/pPtt0IhfzJehmnZ2duwverD/CfIh7EKVOyIAM2nGBF4iLbolyfWHYEoZY8v6FIZYA8kx3X/3WvVMwbFH1L+vio1WWOIrbUJ/2ohrgt1Hn6ZuO4864ATNVoT5ZZpAZZs2bjc+JIfi8/YXxWDUIjsAVG3GaqY+5Epieek+Wdb8EofBJWPQTnMhkYdopOQCVRNpYvqs7OvogxIa0xQgIQyxG4zxsG8YXmXT6IOZKNGhMU2XCpKBmVJSPjlRV268FX7Jd/x6oSiHcnyBcxI9d10eBpHNmiL69800Y10eQUdi1kUGLhSFbYI6HjbbVwFzu21Rp/xjyKOGUV863QNAO843itNVaJxJiyTsXhlgCyPnYbSeNBzENdDLshEXY6tLtOYEFQA/umxqN3jpefwSrcn0GouFh1/NySAgfVcVXX7J1y7lHjrdvVxYsZqRoYGVepITbznGjsA/7m45EaSVrlJbxKNS0kOkcLG+Tx0mE3+Opqb3CEEteuDDEEkDOx257Pp+K4mgOAWs4XVEfvygmou78DPT9zIDO749UdkMy7EYp+mkE7jC4m2udoGBp8XNqYXgA6eCVTUGlGuh1tQ01gUXwWvv2bS2rVbi3jPRwaeQdeprofoW61GKxG/5+Tjf8Ob5IGOKn8HKrFa8BKj8BVxIqkJkoB+vMYv+J+kc7EK9wTPs2WLkHQbgFRvcr4sxA2vi5Nc/IR2Gcr0HhAfyHSuWe00Tp/vR973tfWX9kbexYJpIOyw6TDBkwRPAwxNLBKRhUGGIJ5MIQSwA5H7sd77kh6q424e1BqQsoKkYJe6FyyhyEKOxOwB3UwWK+rIt/re9ar/3yp8dGz+X+ZpJvgixaj/nUmPLN9G87M7msEBqTDh3bP4qo9iQiHUhNZ+KhGXXbIattCEMsAVwYYgkg52M3jh8MUFxyAJEvu4RrFTyh0zZO6du0LwY9DuqARGH4eZr9GtZ2f9b27dvPyri+/fbbbeQ0XWO5zrPgWHX0dCHTnDZcL6Jnic0psga0pSbIn2t6MQJYOLUnktJPeayVviMM8VOggHqqLrdc9xeQ2h0wP6NISy/JwlMI3XYNLFaHyTrI0UZShVFk5aVxq3jxS543OnA2jxSGDwzCiH5OpeJXoS+hEgfnWRttM0T+BjgOC7HDnlYjplkOg0FsLvcLmwU+J7fHLWdzsxVwrjDET+ElO473glpQW1+p9VkoRmYZtjVgZsjZWGg33XST44BCMT+64NROG6kcoFyEL9KzVmGCPCktrFfBxRVtqEskdhjrCEdg+hzi0/ff/6zADPx/UvG8i5BIiJ8QmYDqhPKuEoM4+UIWfcsU0kVgnK9NBCIuyks3sJE7BBvWhu+/r2Oz7AbTt9/q++nBX8ny2ltcx9oEv48FLoDNm93pW/b/qWyZbJzJc4CBjFs+8YHhuenuL9q+cRmkEarSoO5Tls5iLZdHnNGShRDKdDK0o6T7bNsxq6w2GMWpG0eJj+XyZDA8DdDCEKcB5VwPfeIv3zXQ7EbXdaNoW9Tt1jj6R3EygYzX79hhosu+HN87d4m6SL3jok3mSwYHagjKUaPJj/pe8LEwiH+8Y8cXTzG+n+xZ3vnOV9eHg/U3brxo5O2DTm0N1lNUZlG0EIT4KxRm/vJrXvevGrfe+hfVE1PT1863m89BTpOHx2FO4YG8NO+rOQYrb0hbgsApeu2S32T3LBB4w+t/8cpa1f/DocH+Gxzb2QpD2kEC3Z2YuPNBx4i/dPf+cvLaa6/1Gq25NyNK/Kp2KxpCnAy6DfyumXoYiXife8Nb/t0ZrQQ6tn27e2wuen3cTXamWbERMQjDg/0AQ/44For8pDtQ37tttOZa7uANa9cOvduxnCuxoIqfpvkUJMiHw7T46htu+I9z73//WfyBK+RUYYjz8KJf9KLnXXVifOYPO3G2HRW916MgsYOqe6lhOJ/DFKHP3/inn57YurXf78x0diBw9i64Yze32qExNd1Uc3MdY3a2/cjszNzuO++5f/rpHgdeKPexxszrbdP+11GaXzbbaFntDtZ9QMANcy0Oqdz56q6/+1bju//30O/Mz8//frUSPKe/r+aSaZBM+AAMjY+++YYPPSrMcHqkRWU6PS5ndBTEGRw5+OOXd+fb74UR+4LJyXnv21N71eBARW1aN2wMDfZN99d6C6JjjjPmxHmzmCZxK2LX1OcTZKMWk9PzURCYd8QqePyMbrpvnyrWroq7qbkPc1Mb6Mva3z6mxsenJwYGqje3unnj6JHj/xZxjjc+cvD4CGoRGKsG62qg3ysHqsExM7BFVXoKoMX19hTgPN1PL3zhhqA5a/9yvV5/UyWoDNNN1J6fN1D1Ih0aqPxgeNXIJ752652HobfTe2SAgZypqSl3ZGREqakpNYWDrVar2LNnDydZM1B2Js34/Ve9yv3x5KRvDQ9rCY+1Hoy+vr7stttu67xo27Z1rbjxQkiiq2v1+kbMhXAxiw7WfXZiaKT+lbVufvdnvnl/50xutBLPEYZ4Zm/deOlL9cSeBUl7WB0+3Ovw8OHDNI5/FtFgU21XxtZ9W62NGzca+/fv1w904MABuln5TOJu1YjIP4KAICAICAKCgCAgCAgCgoAgIAgIAoKAICAICAKCgCAgCAgCgoAgIAgIAoKAICAICAKCgCAgCAgCgoAgIAgIAoKAICAICAKCgCAgCAgCgoAgIAgIAoKAICAICAKCgCAgCAgCgoAgIAgIAoKAICAICAKCgCAgCAgCgoAgIAgIAoKAICAICAKCgCAgCAgCgoAgIAgIAoKAICAICAKCgCAgCAgCgoAgIAgIAoKAICAICAKCgCAgCAgCgoAgIAgIAoKAICAICAKCgCAgCAgCgoAgIAgIAoKAICAICAKCgCAgCAgCgoAgIAgIAoKAICAICAKCgCAgCAgCgoAgIAgIAoKAICAICAKCgCAgCAgCgoAgIAgIAoKAICAICAKCgCAgCAgCgoAgIAgIAoKAICAICAKCgCAgCAgCgoAgIAgIAoKAICAICAKCgCAgCAgCgoAgIAgIAoKAICAICAKCgCAgCAgCgoAgIAgIAoKAICAICAKCgCAgCAgCgoAgIAgIAoKAICAICAKCgCAgCAgCgoAgIAgIAoKAICAICAKCgCAgCAgCgoAgIAgIAoKAIPCzRuD/AYrfvJ6qqjxdAAAAAElFTkSuQmCC;snapToPoint=0;fixDash=1;enumerate=0;sketch=0;" parent="1" vertex="1">
          <mxGeometry x="-60" y="375" width="133" height="127.57" as="geometry" />
        </mxCell>
        <mxCell id="vl4gCE95MVzYSTKUqyQD-55" style="edgeStyle=elbowEdgeStyle;shape=link;rounded=0;orthogonalLoop=1;jettySize=auto;elbow=vertical;html=1;entryX=0.25;entryY=0;entryDx=0;entryDy=0;fontColor=#FFFFFF;strokeColor=#99FFFF;flowAnimation=1;snapToPoint=0;fixDash=1;enumerate=0;sketch=0;" parent="1" source="vl4gCE95MVzYSTKUqyQD-48" target="vl4gCE95MVzYSTKUqyQD-52" edge="1">
          <mxGeometry relative="1" as="geometry" />
        </mxCell>
        <mxCell id="vl4gCE95MVzYSTKUqyQD-48" value="&lt;font color=&quot;#ffffff&quot;&gt;Redis&lt;/font&gt;" style="sketch=0;aspect=fixed;html=1;points=[];align=center;image;fontSize=12;image=img/lib/mscae/Cache_Redis_Product.svg;labelBackgroundColor=none;fontColor=#000000;strokeColor=#99FFCC;strokeWidth=1;fillColor=#FF5D4C;snapToPoint=0;fixDash=1;enumerate=0;" parent="1" vertex="1">
          <mxGeometry x="68" y="367" width="101.19" height="85" as="geometry" />
        </mxCell>
        <mxCell id="vl4gCE95MVzYSTKUqyQD-50" value="ArgoCD" style="shape=image;verticalLabelPosition=bottom;labelBackgroundColor=none;verticalAlign=top;aspect=fixed;imageAspect=0;image=https://cdn.thenewstack.io/media/2020/04/77c0029c-argo.png;fontColor=#FFFFFF;snapToPoint=0;fixDash=1;enumerate=0;sketch=0;" parent="1" vertex="1">
          <mxGeometry x="636" y="312" width="246.63" height="246.63" as="geometry" />
        </mxCell>
        <mxCell id="vl4gCE95MVzYSTKUqyQD-53" value="" style="group;rotation=0;snapToPoint=0;fixDash=1;enumerate=0;sketch=0;glass=0;" parent="1" vertex="1" connectable="0">
          <mxGeometry x="23" y="521" width="233" height="114" as="geometry" />
        </mxCell>
        <mxCell id="vl4gCE95MVzYSTKUqyQD-49" value="" style="shape=image;verticalLabelPosition=bottom;labelBackgroundColor=default;verticalAlign=top;aspect=fixed;imageAspect=0;image=data:image/png,iVBORw0KGgoAAAANSUhEUgAAAQYAAACKCAYAAABIMOQrAAAAAXNSR0IArs4c6QAAAIRlWElmTU0AKgAAAAgABQESAAMAAAABAAEAAAEaAAUAAAABAAAASgEbAAUAAAABAAAAUgEoAAMAAAABAAIAAIdpAAQAAAABAAAAWgAAAAAAAACQAAAAAQAAAJAAAAABAAOgAQADAAAAAQABAACgAgAEAAAAAQAAAQagAwAEAAAAAQAAAIoAAAAA4uw3QgAAAAlwSFlzAAAWJQAAFiUBSVIk8AAAKtRJREFUeAHtnQd8VFX2+F+blt5JL0AIEhU0gKtYQF2UqgsLKKKCYFgRUIS1oeuwugIKFkAUVpdFXQtZV11EV0UFCwoCAopAeu+TMpNMfeV/7kzeZHoSMhT/v/M+hPfeLefe+333ntvvUBReSAAJIAEkgASQABJAAkgACSABJIAEkAASQAJIAAkgASSABJAAEkACSAAJIAEkgASQABJAAkgACSABJIAEkAASQAJIAAkgASSABJAAEkACSAAJIAEkgASQABJAAkgACSABJIAEkAASQAJIAAkgASSABJAAEkACSAAJIAEkgASQABJAAkgACSABJIAEkAASQAJIAAkgASSABJAAEkACSAAJIAEkgASQABJAAkgACSABJIAEkAASQAJIAAkgASSABJAAEkACSAAJIAEkgASQABJAAkgACSABJIAEkAASQAJIAAkgASSABJAAEkACSAAJIAEkgATOMgE6mOEdzM9XpFNlNwumzvl8XMrstOcLWoIpH2UhASRwdggwwQwmTVU3jm+q3cKoNcdRKQSTLMpCAmeXQNAUg26DNkJqrl9PU1I0pVAZzm4yMDQkgASCSSBoisH2y765orkzl6Kgd9KhHyhJUlC7KcFMNMpCAkggMIGgKIbaLdoQqa1xOkUztETTlNipv6R9zSNRgYNGWySABM5XAkFRDPSJIwmUIKR2J1JMs5QeuKD73fup/TltjFarDUr43tLRBAkggf4QCErBlBrrYiWKinaJSDjDC9e7vLs96tctj7OU7P/TE0884WaOL0gACZwfBIKiGJShaoZmWKcsSaIY3tRxK4wzqD2TKRV9rOo8uGeX2Gk00DQtetrjOxJAAueegLMw9xQVaBHQDfOuWVWmnetV2HleIHLcBxst5qEtD82c7Cm3Yd2LNzKmztEUxxk97fAdCSCB84NArxUDlHoJZh1uVJcVP+c548CxylAwU7glCTzwVeVLpW1aN0UidbZNkxiWokUP926e8QUJIIFzSaDXisEeSYkyse26exoX3+Q2fsCHhg2iBJu7AoAGhGgyjmg6fNh9EJLnf09mLiRr51AJBx/P5bfHsJGAXwJ9UgwwJqDkGfDSWn/7ce0MpVNqZ2cm7dGTIHYSQ4cI+pYrZHetq/80lraYk6BbQlGCOJBKqmVlO7wjASRw/hDok2IQKXEQGUoQeNtlqe36MDkZtNWSB60A9zEGhyVLi8KNsju+sny+XSmAgSQKw5uOFqpkO7wjASRw/hDotWJofunJCyiLJYFEnYY1C0YmDpQEFPCv3o8SjIbLyLOvS7JaR0pSkQrGIFihTXcD6UbYL5slldbETvHlB82QABI4twS43gYvnty/iJGgzUCDLhH5EAWvHwV+f9R9+Pq1FG+LokgXw9dlsya2PbluKJWW2c50tMWLCkcjQYJlknxN+VOgMP4NjQ2bL69ohgSQwLkh4Kc0u0dG2rElkq+tmGNXCnYr6E6YjMOkHTtY2E15h1+lAG5pkacktTqNP7wvg2Ld9RBtMQ1syP/9XM9ZDvfQ8Q0JIIGzTaBXiqHpi/fHQPfBufeBjBOI+ra8+v0FOaLJ9LuAkYaug626fCjMUKRJHq0Komikdt2fyueNiwwoAy2RABI4qwR6pRjEzvbxboWaDBPQjIrRN8+Cice4QDGGLgNFtTVfItosA+SBR1f3Em8bHhqqmeZqhs9IAAmcWwK9Uwy8bYJ7NMk6BHOu2KL7s0RJgaccQS+AQohiJTFN9DGlCXJZsanhr63bnne2SNzDwjckgATONoEeFYNu0+OX0xbjYK+ISZJSkkSNl7mXAdEMQpYoiSFeVl0GktWUwh/4bCbssSBtEbyQABI4xwR6VAy2o/tWUjSZiji9yz4eYTRm0qER9ulNX1LIEmm+teEPdavye6FofElAMySABIJJwH2awEOy4fVnEzr+s22S2/iCh5vevNKSqJSslmEB3fLCEKq1joxXVAZ052FJZjTKV8zOUfK8ryEMp2uL1UKJMbHGsKjYlq8zRptnzpwpOC3x4TdN4NTNo65jBD4T2psSpVDUDL5o4ue0Vos7d/vxVQMqBtPBby4lm6n5fgRAvEKJZan2FvviKL+iJCmR0XckgX2fFEPxxo1Kuqrii06zyb4FQ5bv2S2BbeES1dTQYaCZxlGFv/5Q+9S9u5KGXPMdjQpCRvabvbMMczcssZlFagaGpnf9Sh3/Ch6tv9kEnQcRD6gYRF3DJfajG4PQ84eaPWB3hIxXsBp1JjDZ31cukiglEz+gDPxesAQbsoq9kTDUWlt9ta2+9r7yosIvq5bN1qY9/9YBvx7R4qwSqF9xe6jZYrqB4oUkdkDmp2na54t7igCMXzkPGKUho1HHe/KB9j0R8FtYu3Y+ZjmXMPckqb/2oIFoXrjgtMR4aAQy3EnDdInnnyybZmEihaZVtpamCeaywverHp03R7bD+7klYIXdt7bKsjdtteUb6M7mK89tbP7vhh6gxbCHoXhr4OZ/MLlB4RYlPrS/IqHC+IgSqVdYH6dUiywzhqKlq2DyYziEEwbKgWzmSrb8cuSN6gfvqkl95h+kCYrXOSQAnyQbtvBryASVCEcL9zUqOLDQV2K+3QdQDFDtij2sUfAt87RN4aS3gPHpSTDJRZCVKobsOrLLl1voaewqnjA4XOLCx4BK2ASKYSBxRzKTuap4BbSS9uKglS9yZ8fMPpB81wTHTxCcZpB+m8CnKe//qrfAHM/ymYySyPZ/piDAWgjSxcj+pFifs/OnTyRKWEy6GvKHFy3mq2vDuRT5He/ngMDWrZxkMUaRltzpXthiOF1y7v78KoaC4/ESxSna3J2fwTfIDJAdztpvXRqSlLtBL3wiZ0Gat4WJVSduPoMpRNE9EKhsKQuDVkO2U1v34B6tzxwBv033mQUFQt3sUcVkajhAJRy8mDGMIKkVh4InMLCkkVsP2QpvuvgrWNE90e4SxjgEm31D2EZXn0UTBtv3iQ9OixRp8CPbgXO6+oEZarZBl6A3NDMxaZeaKnmlbuTWrU43slvX+44ZM9gZuWZVTbUipqOh2H5Opvqii82SkmvNpDKtvenKkIHh4v1vKjgTT2eOnevmR5oxQ1ke3xljqarWhEbHWVMHXt1EabU20lpyjQd5lrRjuVb1kNDGQ0diKLOZisoZ3jlAr2mlt27libWn+0DvEC5blxutMhs64pXKUGBmoXhaNJB0bYd0wW+I9FiZ0zW/aiSLuftnCHr0EShGDjtIBE3NmMEUd/xkz+vWsEukYTsKbFAP9Sl9RJpjQL5cWd0uxtJqlWM8TJCMthC+uTff7mBeniIvoZ0pBlnWMJWUW3C8xylVwlWO+2DwQ/fgh7hviqc0fHRELEuznMVioRScUd+iotqHaSHdvfyucoXpoOjxv27JlPFCdcmn/OkvfPSQ6P8VZgoapOgBY5O3fnbSvytvm6ING1TU3rfMks1CWhwwgCltztl55F5vl94mtbfmxRk6xTrwx5F8okhO+z7j5bwradqRiU9OHRPO0qYPRVEM40JCCzWp6fcnr3+7uWXNQ5HtJ3+6h+/Q/wF+aCdbEng49E5lhR/z3Tvoza9meodEUcd3aJWh3/58vdjYOFPg+eHgJxU0EWRWmmIUSiuss6ikWGY/l5Xzdsbq177zJUM2q9MuHqs/+M1aOMeCVkQPeC9z8vx1xd98wylafpnO2ywLYGNaDmWzaWCxDxRwuoQJj9g6aPvubbL/41qIS/WPk4X2lttg/n84sIsB9U9DPDphIcAJilbssAy76O1c7eYO2Y+/O0lX+P7Ccba6mlmOQ3mEFGDCkVLHsJwZFseVsaERXygG5fwz7fENRZ5yoLApC+sPxkfGJqZ1lpddKnS0roF553Ay98xFxW4QWlq+6O5fChQXEWEdlP/kbnrcOKK87FfhH0a9TQv8LSRMWqH4yMpkTM8tKLBWL5mWamnWTYVccaVgMsG5pDzFaEI6KZY9yCmU72cMvGp/rxQxHC9Q89P/RltqKuZQps7LoFWTIfG842hDlrNB16ec1YR+FzpoyGsJT2z+GT6Ll9IBA7po+ugVtNU6EybuRZrmCrnMC5dkvfDPgK3ysrk3zrXp6hdB0iRaHVJnzR0/M1er9VIoZHymZvmca8311XdSVnOeJIhJkiQw0A6XGE5pkljmJBsa+ZkifdCbqdqN1Q5y/v/322IgXowb/vsNO+0iCzye8SPYAGYxN2hEDUV95j+2Qbbp7BBvgprDwYB8OVapk5UCCSrBaGZ0YdQIiFu0aDYlm42dsRUPzxZaf97/ntiqGydx3fhgZSclcSxZoOV1VT99b6x513dv8E31E0Sy9dy5/dyhl0Wb/TsnwBz8SMuxHxeVLfnj1swJd91HT5xI2HtdtGgLh4U85Dg9VjQZFCW/HtimtJQ+YtG33m93DImy99N5e9mJl1qbf1fz4J1UyjPbtxH7sKoDWkt9zSOgBBzuukKAeERBgUyhKfP16tJTZDv9/C4rv7fQ3YdegAJzD5zvCbLce6aiaI0AjwkCFCahrXlJ+SMLbslc/erHrsIaQizjqerK9zprqqCggX8HEnu8xPaWpSxHL+3epccSfdFKKfQZIMPnDydDkaRN0aVSSf6kScbqqu0sb40ViNAuJrD9H4qKNM7K0Msr6448BnJWu8bH13PFt/9+1Fp6SgtlkwFt5+5EtH+7WMFszGs/3LLIeN/sBeBgu7sjxxtD0SnwzUba2yq0yCo0oocwb1+MJCXALz+OgnRDEuiSYRnl7pDBi/SVlqtYMlNrLTu1EtxALLudkPa+YDVHgbMk+E3ZcUJH+6Lq9drrU5drC71D6zbpltBt5nxKo2mTKmcEDNJBrM7gRU6GYqLi3457cG2PNVSwokE4A9Lxcj4kGYfmFN97yne4I+qaUjKcIkRq0D0jGlqvgVqHfCkrcDfCxzCRfMcwClBs7lfVU8tSzEd+KhBbmm4UQZHQ8NHgY3VCDj8AXD+Al53g4xB4N9vXjLAszZcXLSx9Y81rUAvYuxruEsk5uqQUOi4ozEnUqQN/h0Vb90Gro54JCXsHssZqWql+nlWpT8JydJh1oanOU8e2VD6+aFR5/tQ/W5vrHoTWCQWtnMOMQv0iFKY1rDqkgGaZRiKVxENsa5lXlj9ZK0k7fGbe8kfzk0pmj91prau6RyIsCE6Wq4NWxyecWrMBWk8baY77HFqCbSSjSoIQbjt17PWqR++e4Ii5438FyzQzLAtLzxgjVKNmVzvoSVh5UTJ2/1FGsNc365pdnbk/03RUtDl6pdhQtwPGjWLhxLAWCH8fcN5LK1TQYqF5R8GhGWt95aqy/Cn3O7oI7mLIWwm0DMvvuuEftvLiVfBxARgUF5ZtgXzyJa3SvMwoIZ0K5cfAvbmrMHK2yqKXKpfOmkdqcE+J0Jp1K2+dVtKy7+uV6eWhsuDYfFtVyQMkT5JQIU6NbGh4AaMJfYYNC3se/nbD77i0QJsQcp4hzXbyx9elgwd95i1ZONe0bNps6tKrvoq/fVmdbOh6j13z5qv1t468F/p+I1zNg/ksqTUV8Y88+hoUMJ8aCCAzLVtWDZWKfh4Vt/697cEI+9eJI4YraLq72c+yZkXa0A/8yQa1oQHmy6yNdbdDc5WiI6NeC41PfqHh2L7GmFG/V/AVJ6ZSaVmHKWqPU0TVjh0a20db/iMZ4Qd2urS4KFHHRE6a8e77R4u1jplSyLMUfWpS7liWVbwNjwPsH9DQdlvtw/NJdXSXU6CPB1iHMYAytE+lI6J+4pKzp2eue7VMdgbhr7R9/NpOQVd/HeQYha2yeK3Y3HA5ZBJKmZa6MqNRuZaGsSSn+8W3XWSpL/lItFrSSZz4+prFtY9/BXGiTslu5LtUX/mwoG+dTNJFi1CEQ0M/DE8blJ+47g27cpHdlS2ePpSvqfgQFMMQyWaNNZ04+o5u/coLY5f/rYq4gfsPtbeOzWrStTAxF48YYyn65U0oQCESyFTGxD+tr298WZZF7jbKJA6aehdUIPNdjZ3P0HIbA0cCjKEYzszFJqyJHZK9LuLRl3TEQZlWq6ZrDk6wNdf9A5raUbDaVmFrqHqyMjrxc7D2Wi9Jl/xyt7Wp/k5QCKBr4efVlJqDyuT0W9I3vlviDBAeahbdkmZurPiXYDFdRYlCqLnkxGt1Ty8+ClaQH7ovaOUFvYpt+9e/opt3vvwYlBENiSMXHX8w7LIrpyTcq63vDhniuH5lmq3w5xcEQ9u4xLETZtEjRwYcC+PgyLanqMriAbWz8qqgYP4M/ZFfKI36GMWFlSSMHFNGz3/IwEVG/9XaUPOeHZBraMF4ZuhWbkDaXDprnFk6/lVYw8vPZlFGUxbNm3MEizUHapyc+ll5g6EfHM+ERr4DQQZUDG4q2U/8yqbkDbXRwlZXa6hhDyV2UH7HNyCjhpnLS26HWrCZTUpZlLX5Q3JWpUORfWbPJ5CB97qKpPjd22fyrboRslKAbLGH4cRZOe8fcys8oHAkatfxr05OzbmUoULIGowRIjRZO4/tn1f18ILX09a8usdNsNuLJNKakE/DM7PnDXj61QZXq7SZM031L2tnd3zxyVHRak0UWhvH2Vs2oWFv2Zj09XTBRqdSIP5SN775S8WS6X+1VZS8aldOlBQuNNVdClZuiqHqBe3F5q8/nmdPF6kaQ0Lfjcm88E8xa7e2u4ZPnrM2vXeyPH/KrbbG2p3AMBn6v+GGk0dmgdU62W3y23vsTYDSzIxOB1CHDXRPbBd/dqzJzkd2TO4kEX4u4h++5VFlQuqK9M3//sL5jcA8S6s1Q+vgwwrmyAprbfkWkAOnmFMaqbVuHFi7KYbGbc8k6j9+/76uJh4oBdV3bFrGnPQX3ikHt25XyuZ3qkryZ8xhdBWfiTYY34FALUVFt4MjN8Xg5ilIL/rv3h8lmYzJRBzDKloVkdErPJUCsUtxKOLp+nXaOM1tiwM0uYhr0vqNid8EWi6EsllyQNP+UTDqn4BaZYfQULy/ftebRfXzxu6En6AbpkjP2WuvGRz+gvM/0XBR8d9Kgu2KxrlXf1T/+OJCobbigNTa9J5g0K+FOM2XzMYrJd6aCAEKojrkPz0F7NkcdXUPMwwRp6ZestxKCT9A9hkl2ylgUEqVmLq5p4EoMkCpSRm4KWvApe+5ZjhZjuddNJpuh0zS9fsbUF9S0uLBHkrB1U/Of0/VQTdjh9xRgCYrBUuDZ3s3dZ3jbpBvWb0iNupvnkpBlpt4j7aR4VR7He/Q7gHhmvRB27M3bvQavyBpih0y8r+UOqS2y73C2tE2UJYl3/kTPz1LWS3h5B0GvqvVEZF/9qUUZPeZW3ceVsYnkkFFCZq7NPTzJ8l23nePQt/HOhaUwonwi4aMz3j5vd2+vhH5xhk5WW9xkVGVpIaFpjdr6zBc7hkPyy+/3Ad5L5WYA7M2LiJqaZYPpSD7G7S1oJILD30AXMMIJ0PORB0v2/m7hyoVrnrQn7OA5tAdIr8C54DG0HoqVOXVnXUVELFC26NSIO45WsHtlFjFfXDyc3qXAFiISsOoGg0jy/CjtO1Nk6E8TLbpoKfhOfDiGuLpPIPm53X1UyC7ToECBMHAE8hxJNM9gzAKRWFIfPLeQMHYawuKurVo6ojLoHHrLgBeIR9kQIsiCdLX3bCA8QEmdeCzqS8s3EG9SBokfi7wDJnjx9SxM5+BHZkgPvDV/PJzKW2733UqH0jcB8Pyjp6wjyj48QoRlo7ztm0Mq1wK0U209/XNnWPqkig1eCH9666re9CTGIgGm1vNL7uS7zAi3UqR5j7pziiURkod7rdlFNZi1UGTuVqAwVZS8zEqtdv+ldZ1KzN03316DelT278Yx32ZwqS5tVTkcF3vrFL5KSgFEo8Y0WoeCpmZA/HdGs7VcX+eJbFYd9zcFkgE/cDzppK7JnwIZw7eT9wxoki2+zsv3QZtROv+PXPkUgvK91CIJqLQ6cDPg14T8r2GMdRC9y6d4vkcvVYbF6HtXUH0I7JHYzYsQhTb7D0lQMvHiq3634Gn4h499uCA21OnKR0bEfU2NDMfIs1Hz4sUVvKP7Jw+IxcZEOlJMKzNVmYNfThi9esOAi7uB8OzBwX4pSs6yUMrOHyQkif7hd2WUCNb1BnZ96W+8ParvmoX2an9Ds1aNjzy76AUTG7mfl7MZceuhSnDiC5r6M7SMDUG44A9XLkfH68vnHrJPojqNHtceSGTa2knTUWPZDoEOdMTQC5MG0pOzcEqBCXHOF+9vD3xhMTMu4HsRbVfIF/l6kZfcTIbpupURJGTHjOrCTlCXZmtrM9e0dUycnXd9TwAaqCfKjoBXBvIiyH9e/0W6DJSlNf0pQ/ffTKCBpHPT+8pRLJ0dsA3d+QHlksnta6cB4xNtRmSvi0emgqQRhi6VWlOGsIHso0vacM85bi+K5raJF19UyXMA6TTvIU1xSmzwd5fDd2reLrK9/UcNnzUibbvPjdKvBAKc/VhlobqTRVL/nhh1PALn4lcoG3x5ac3ZhxZyNS2efVa09f/ngDNw4t74+msuoEvRsYWYta+Q/rePV+keSjCEJ/HRWYDoMUjwB3mq+gyJixujyYl5ZXk1f88GbCl0C1HEnm+17MmvL4tG4biQalCuBJlYFjxy25RgZ9AVf4PsqP9gFxY76C26JpjwYdPxRBYkg9bLzI+3AQwgm5dAnAg6wXIZDycFt7+RNF/3n0wgJcuKwhYlBLICzm4x9he1b2QqWfPvXbRo+aVJREOpGjaedBd0ypd9YaxM1UUBAWMJ0HrFRYdmDpvl07tntbWU5uByBJF8q1IHoQeuikNHr8n72fqil++urD87kkvWxtr74PYw0eRIi1lhQ8119XcUXrn9V/SjPILJiZ6f3rGZSX00qVe3Ud/8bK3SaMWPdKqu2fCQktj9UfQ3rYnzJ+Hs20OI7n1dGz8Gn/hupUW0tyPjv1BkTboQxgPcWv+2JrrJUV4RDFtsxTTFmtVUnJeG/Q3eX9yfZmDuumVlie1T+WS6UPgbs98pPzYBCngKLBbeJJYAp13kscZGM2n2cioFDd7l5deRcjFfV8fPeXTAmMfW3DIgepZFMIhmS5mPYYgQGEzSrEDeux+2CUBvL5cbh+9Lx5d3IpGSxgZi5Ev6BqEQaFzrHSUDQPfyYwyrQxRVQZwZldJAex7bUXHpj+tgJFHnkwdw1mspMsPaxeSKIvpNkjHDErX0FLaUPdjzYNzNyav3UYGZHvUn87OatmItEOp37a/Ina0P0r6lr2O1Rl0CLHopOKSHx/w4n+P9SYYEm3JZtuf9retfhVJtxyyfODMXVBYTrvvJYACcv0CotC/XafBTCVsjpd7GfZmtjJz6F0Mwx+Rw3Cs1ZLfyJBG97P8xIbEWpMXPFYhv59vdwmONJfjRNbYcBkD/wJb9neSif/epI/4FdVhQsyClb9Sdz8mizpj94w1L7dKkvaBmofCd5prau6WTJ2joLsG3U9BTXrhoL0TYYHZlM6OtkkV8ye8VLtF+3DyQq3LmJV31JyKYeTCrTY4PWc1w5Rmwoqz24KmzrzDtJsQzRMoDBj2sjLhMX9NuG7BP6ktn/mR4sMYVs36MD0to1YPX1CJBIqy0zWUaqly0fRyR1vVYaxgfK/RcHpyeYDB165hZjAEf7S+vdrFun+PveyDy4F4Jlg0djTCgiQ7CFI7M0q2I239u71S3LLM3txPt2ZylugeAiGjB04N53DrTCqnDmm1wmIKshDT3uqz8a0DN+3sexrXbg8Ui9NKYnmFb5FdK3a/kJ5btq+yqjJJMvHDRbPxJqHDcL1kNqXYJw5EibE1wfLqY8c0kK58kk99S4MxIVcLWJzSWaaduzi0vu4H6CO5DTq5ujsbzzBb0hqfmfvub/VMRomlix2rHO20lDxDpcKT21y5P44sTZPpPIZ8NRgg5RkF67U+wJ/fnsz95oSePHbZa+JT2zvaHGNapKckdXQOhEwGecx/JuulaDdn/Y2nmzAfL6KL7vWyDouoppVKK5QBDbETeSGXLDumx/Wt6+kl183gtPQCRWW4CfF6ITMuYFhK/uC7fFDzzEMpfNmJe6wNdX+CPSwx8KVYW1XZgppVi58FN35HTdwUAwklS2vf1LGJPJ/765NzGgUyOuY6pNzbMQYS6bCM7G9aqivMsHFHDZk8hBWYmXD/DLJDwDx/dPzF0JdlbpIdMRxXqxqYGLDFQHcfedgjLyi+suge3fpyIGQNKqErCmEU3BpCBh9thvbfla9aRSoRsy/3/TYj2se1X9VvgX4FkJJqZ8OFampgBqoBFqdl2gcfO9qHl+6vJWMMQVPQkCalDVS+39h0WcAUJDw5o0Zl9uTBxb5LWVfDb8z+pXLvO03WiqLnYUcVtAZg3qSqNB6c+lUMwRircYkKPsoEYpY/fZJRhzhXDELenlg6JY+MUvu9SBEICaGnwQcd5HTEKA5H7y7t9WyI098Zekhdqq3mEpM/tS92g0TBwSpXqCzlmWcouHMiNvHP6zpVA1K328sjSSNvvUjZYBrRn8hA0ZYUcfGdznoBNubRNlOPMzPKjGwN2RXan4u0upno+F0MKAXHBbFhu3urvmTLLp12knaGsrHOMLlrZ5zT3N8DNHt91kBC12os2V5+760cgVU2Jo6b99lvtSsBhVssWzDxHRjMvZA03+AzJAqi8HTVjMvvTiv4njT3vK5D+XlcRB1/JznFllwMjHSp0zJ30M++7tEddvcKS4d9fgN3V8F7Uw0d/pi1sWY8ZbWFwhLgJFNt7Yu6NzfMiJ2zVB8olAbtsoFmU2tuet7ET+G7Wj3dkszomlAYg4VZW8jE5+AKz754k6myJB/66UmS1RZhbax+rualp25OufexqkDRqVz7YDLT0nAlMzDrI88BPiY+5WuqofYRmFKEmWw+gbbZRoKsE/7kld9/67XGU8cW+Vpf5M+PP3P48YQk+7gxzFjAohrY8ZAASsr/5aUY2huMoXxL3WqGtw3x763bxvVDkk/omUNd7bt9eT/J7mQZsBrzGyos7EtwKVt5ezrPTbjM9DeE1ua74JyCbHsGp6k/Gk3GqrKJuS/qUtW6vORD9rT9ejyXoyyqdK5efBzWPYyzJwua0HRU7P7kRas+pJ593W9KPXn7dRhEi6Sl2l9L7/z9Nt7SfC/UqrSoqx9v2P3RP8ruv2WF7oKImryFW3n4jvZOAKXVsg0dR2MEXjXZ8Mv3T8PgZUJZe8tCiM7fPaMkhkV2SA21ju8NAmCQJb14wxIltXSjhSwLr2o+nKiAw72TNhY0efoN9nvEwhXNZXdP3giK4Un4diycXXGpad/n71QsuzU/PTKnCNIlH3pCQ1Odqf7+00iJFa+yHvpundTRPljR2vwXiNOTrvFKvfnur0uLjhfBNvRsUA4K2JC3umrZbUeKI2tOjNPusTcLtJDOJbqisE7ROM5aWbIFFtLDQitSKnxftbD3wXrih+0w/XOCUkesz4ga3OC5tL/quWUa80/H7gAta/8qUlhUg/Kaa4qp5/znKy/FQIKHo0Og19r3XkYwMqksAwbuejvA7JvYeWCa9tgrNdUPLrjDVHKsAJRDKnxgFUxvPwxdy2mR9cLRwrrhldCyYBUSnQaD5KPhs6XZ0w9FilVr9keMvuEPdFZWwL67/ywTHAD+5Kuzsp4188JoUa8bTTZ8WXVN0xiDfmRMk/ob2DR1CJb/tVXSVBRfvHekaDLlwSa4HFAVkLUgX5nMZB+Bt2JQx5bQCmWTZDGFk1XrfJvuNvbgCb5k1pj9ZcVfjxBMHdP40KifYVBtOnDrV4XhY1bCCxiXkr0Fvlse39IwncRb0rdfbjMZPy9WVO9T5E/eXybRTVBOQkt2vjISdtBeAitCc6FW5mD7OSW0t1/tKRB2NBor86du4Y0dayD+HOzFSDGXF+5KDw/7uGT21d9AU1+UKvdf2NquGwuLyEZBLUtzyRmb+fqqfGDnNR5Rtk2rtnz9wzpbU+1EyFsTYYXmpIq2poLKRxZ8TvFMrRrW88FvdORafzw8RzAappI0wNZ6k2LoRXfG3zTf4Bk/13efisHVwfn+PBgiWOwWySDqE9IDdC5L8ldE3AL3ekl95tUfKpffNs1SVvQOaH8YzCIalyatsSGgJOzu5d5el1IQ4EyFktCRI26NX7ayzktgfw36mAxZUXsGm6zdWlm1b8dY25a/fyC0NF1LMrpos2TAPogMurV5DmkykOYj+V1SuzKwC5CsitjE79R5eYuo7d5T0AOffrGhavltL5hPHX8emMAvAIgRvK5hCcOwS0TJYJcFv3GaWf3wwlkg7i3POAX7HX7spgWU0Mzy+ZNe5ZtqZ8O3U0HhT4IR1+m2jrbpjgSSNMInJekkl0TxbETkifARoxdR737rMHP533Jhxt/ZNt31oqljPLQOYQEbnya06BZCXlgoQBPfvmaXyKKlDlVSxvKQ2KydbS0NcyWLxUsx8IYYSRkeUU43N+ihcxIOW86HWptqH2d09Y+LMN0PNQqoT17Rdf4E6UJYFSmZq9Kf2PSpS5R8PvpsFvQx7/gUfNYMW1pg1aeqHaaXWqG2aaNVqoA1bF/iRdYxkFUEQLQF9gW0kkqsL/5lt+nr//UjN2TYdWx0/KOMRvMjLCfWQwsc2gWOKQIoVBIcrtHKqDR7FUnJ90aPuX5U4p83lcn+Pe8SB8tWYN+BPV5wh15jwNoTXJuIW7t7WtL7HOCQA1m1Cjr2Eix+kVq73Pt1nnbFTFP0iNxZyuSMfBjF3w1Tqy2gBGANO8SI6D8O1tYoODOkq5QJj3pbnTF4VuakBTcmLV3ttyuQeuvVr3AJiY/BoTjlsGpPJLUvOZdGYrlOkHNIEZeyzBodvUuOLrmDO1bOs8CVoXJdbf082xW0ww70c1ep9nYL30ZUXTZ6sTIp/XZFRPQHsJmvCY4CIKs37Wkkp3jB97QyKlUVExH9X2Vy2p3hN8+8IuHBZ4u8pVFU9tKN+phLr7yFjRnwGBykcwqKrpUoFSjIcAKYUoBNa3DYTug/VemDbkxPuvTVuMSBLbCo8UjXtzZQBp1TV2fDEueMDTu0XPawG9iYuBehlXkKdpeaiSxouSjhTwFdDIFSqnVwJN4O5cCcmzJnLl3vK16eZjJPp3nbPZOijc21++A8wqFOw3PwAJlsb+Lcv93g73gzOUpAie74+uM4+d0kdJgSxs0Myig+6eafnDY6hjPbGJFjpCF8goH+5JNerzeX4+R6J3P+desfS7cU/3w5X1UVSnESrRmc26a88IpvE+bdW+/q1t/zcRggjj5UGtHJi/BLHIxUawhvG7fH0Uf15adx0diw9rJ2+5y8AbYBXZJ7k86zH+rqr2zu2Ci+od1RQ8UkWrL/9UnAQUXZr2HD0/GGlqoxQrshFVbtw2g+b1RmXHRgQPYlRT19R1mGfG9a+2C4saVxrPXXowlcWDgfNij3h7gnNxcSJSq7ke8np4y+FjozA6E0QNlSV2f24kdtS275PTT/m+AnGEWRjojpgLM6d/iSLYch39uf08Z0GJryhA79ENgYB21z0RqSkv6jEDv0VOIddwQc0JNlyHcJugL1FbqL24/tv4iFvRWqQRdUhxnMP8RsLXCbFoXvoYbvEW4V1ULup9/73Rh18OAWReru6qG2hqLRtFLDkdpCwarKw5LTD0YsftRrA6IcD193L8UgwW8HNjSUrIYzEhJ9eThbZnBgzMmEMXc8SS9c6GzMn62wMRwkgASQABJAAkgACSABJIAEeiLg1ZUI5KHx4TmD6Y6262F/SZ/8+ZNJizzDXnD5G7FLtb3qw/qTg+ZIAAkEl0CfpitFXc0wqal+EwzS+B3F7Uv0YDWkwKQM+wD8oGLoCzh0iwTOMAGf05X+wgxJH3oKfpXJSgZj+/sHA/4UExLxa+zK54I/V+8vAWiOBJBArwj0STEUJowo5aLi9pAZ+H5fsPQCTqh+nswT91sWCkACSCCoBPqkGEbC1KHy4hHwy0NcW39jQavUB6g4TUF/5aB/JIAEgk+gT4qBBB+94qUKLjLufhh9DLjWOmBUGbaRiYp9KEFbEJSFSAHDQkskgAT6TKDPioGEEM8OekuZkLIAlnL6XYXlMyZkKaFSdYyJG3hd/Ob/eS8k9+kJDZEAEjjbBPo17dj4wPRLxJqKVZJghZ8Ghx/tgDPlYO23exqIMoDTQmFUopYLi/iczsr5S7z2H7XujvANCSCB84mARynue9RqtfkhXH1pDmylvQp+4v0yydgBv9XIhoB+gAOFKT2tVh2AjXdfUMqww/HX3VH6Wz14pe9k0AcS+O0S6Ldi8Ez6wS35iry0CxmyFXqwpkUI7gGanqHhOxJAAkgACSABJIAEkAASQAJIAAkgASSABJAAEkACSAAJIAEkgASQABJAAkgACSABJIAEkAASQAJIAAkgASSABJAAEkACSAAJIAEkgASQABJAAkgACSABJIAEkAASQAJIAAkgASSABJAAEkACSAAJIAEkgASQABJAAkgACSABJIAEkAASQAJIAAkgASSABJAAEkACSAAJIAEkgASQABJAAkgACSABJIAEkAASQAJIAAkgASSABJAAEkACSAAJIAEkgASQABJAAkgACSABJIAEkAASQAJIAAkgASSABJAAEkACSAAJIAEkgASQABJAAkgACSABJIAEkMD/FwT+Hwfei5whmRiZAAAAAElFTkSuQmCC;rotation=0;snapToPoint=0;fixDash=1;enumerate=0;sketch=0;" parent="vl4gCE95MVzYSTKUqyQD-53" vertex="1">
          <mxGeometry x="14" width="216.43" height="114" as="geometry" />
        </mxCell>
        <mxCell id="vl4gCE95MVzYSTKUqyQD-52" value="" style="rounded=1;whiteSpace=wrap;html=1;labelBackgroundColor=none;fontColor=#FF6666;strokeColor=#FF8000;strokeWidth=1;fillColor=none;rotation=0;snapToPoint=0;fixDash=1;enumerate=0;sketch=0;" parent="vl4gCE95MVzYSTKUqyQD-53" vertex="1">
          <mxGeometry y="29" width="233" height="60" as="geometry" />
        </mxCell>
        <mxCell id="vl4gCE95MVzYSTKUqyQD-56" style="edgeStyle=elbowEdgeStyle;shape=link;rounded=0;orthogonalLoop=1;jettySize=auto;elbow=vertical;html=1;entryX=0;entryY=0.5;entryDx=0;entryDy=0;fontColor=#FFFFFF;strokeColor=#99FFFF;exitX=0.75;exitY=0;exitDx=0;exitDy=0;flowAnimation=1;snapToPoint=0;fixDash=1;enumerate=0;sketch=0;verticalAlign=middle;" parent="1" source="vl4gCE95MVzYSTKUqyQD-52" target="vl4gCE95MVzYSTKUqyQD-13" edge="1">
          <mxGeometry relative="1" as="geometry">
            <Array as="points">
              <mxPoint x="262" y="358" />
            </Array>
          </mxGeometry>
        </mxCell>
        <mxCell id="Np-Ry4cDvt4mAsaZ5E4g-2" value="" style="shape=image;verticalLabelPosition=bottom;labelBackgroundColor=default;verticalAlign=top;aspect=fixed;imageAspect=0;image=https://komodor.com/wp-content/uploads/2023/12/Leveraging-Argo-Workflows-2.png;" vertex="1" parent="1">
          <mxGeometry x="221" y="414" width="125.27" height="76" as="geometry" />
        </mxCell>
        <mxCell id="Np-Ry4cDvt4mAsaZ5E4g-3" value="" style="shape=image;verticalLabelPosition=bottom;labelBackgroundColor=default;verticalAlign=top;aspect=fixed;imageAspect=0;image=https://s9i7q5a6.rocketcdn.me/solutions/wp-content/uploads/2022/10/TruEraLogo.png;" vertex="1" parent="1">
          <mxGeometry x="-120" y="537" width="89" height="89" as="geometry" />
        </mxCell>
        <mxCell id="Np-Ry4cDvt4mAsaZ5E4g-7" value="" style="shape=image;verticalLabelPosition=bottom;labelBackgroundColor=default;verticalAlign=top;aspect=fixed;imageAspect=0;image=https://cdn.analyticsvidhya.com/wp-content/uploads/2023/07/langchain3.png;" vertex="1" parent="1">
          <mxGeometry x="-47" y="287" width="93" height="93" as="geometry" />
        </mxCell>
        <mxCell id="Np-Ry4cDvt4mAsaZ5E4g-11" value="" style="shape=image;verticalLabelPosition=bottom;labelBackgroundColor=default;verticalAlign=top;aspect=fixed;imageAspect=0;image=https://miro.medium.com/v2/resize:fit:1400/1*ZSRxGTqVjbKR1uTfkweVEA.png;" vertex="1" parent="1">
          <mxGeometry x="560" y="798" width="213.16" height="108" as="geometry" />
        </mxCell>
      </root>
    </mxGraphModel>
  </diagram>
</mxfile>
